<svg xmlns="http://www.w3.org/2000/svg" xmlns:xlink="http://www.w3.org/1999/xlink" width="852" zoomAndPan="magnify" viewBox="0 0 639 272.250005" height="363" preserveAspectRatio="xMidYMid meet" version="1.0"><defs><g/><clipPath id="d1cde79240"><path d="M 42 1 L 599 1 L 599 271.503906 L 42 271.503906 Z M 42 1 " clip-rule="nonzero"/></clipPath><clipPath id="e4dc7faa9f"><path d="M 47 0.195312 L 65 0.195312 L 65 33 L 47 33 Z M 47 0.195312 " clip-rule="nonzero"/></clipPath><clipPath id="cf57192d3f"><path d="M 25 0.195312 L 43 0.195312 L 43 33 L 25 33 Z M 25 0.195312 " clip-rule="nonzero"/></clipPath><clipPath id="ff3407f34a"><path d="M 495 236 L 513 236 L 513 268.804688 L 495 268.804688 Z M 495 236 " clip-rule="nonzero"/></clipPath><clipPath id="fc0751aed2"><path d="M 517 236 L 535 236 L 535 268.804688 L 517 268.804688 Z M 517 236 " clip-rule="nonzero"/></clipPath><clipPath id="256cdbec9e"><path d="M 82 12 L 553.847656 12 L 553.847656 103 L 82 103 Z M 82 12 " clip-rule="nonzero"/></clipPath><clipPath id="810a5e59db"><path d="M 0.558594 166 L 472 166 L 472 258 L 0.558594 258 Z M 0.558594 166 " clip-rule="nonzero"/></clipPath><clipPath id="4ee28932a8"><path d="M 56 6 L 112 6 L 112 78.9375 L 56 78.9375 Z M 56 6 " clip-rule="nonzero"/></clipPath><clipPath id="05ef002b42"><path d="M 158 6 L 214 6 L 214 78.9375 L 158 78.9375 Z M 158 6 " clip-rule="nonzero"/></clipPath><clipPath id="9c59769109"><rect x="0" width="400" y="0" height="79"/></clipPath><clipPath id="e23d832cb6"><rect x="0" width="557" y="0" height="271"/></clipPath></defs><g clip-path="url(#d1cde79240)"><g transform="matrix(1, 0, 0, 1, 42, 1)"><g clip-path="url(#e23d832cb6)"><g clip-path="url(#e4dc7faa9f)"><path fill="#ffffff" d="M 64.523438 31.0625 L 64.523438 17.222656 C 64.523438 16.3125 63.789062 15.578125 62.878906 15.578125 L 57.484375 15.578125 C 57.367188 14.273438 57.527344 13.058594 57.835938 11.914062 C 58.304688 10.183594 59.183594 8.585938 60.328125 7.207031 L 62.160156 4.992188 C 62.660156 4.40625 62.644531 3.554688 62.148438 2.984375 L 60.3125 0.902344 C 59.890625 0.402344 59.199219 0.242188 58.597656 0.460938 L 58.539062 0.492188 C 47.644531 4.390625 47.394531 15.578125 47.394531 15.578125 L 47.394531 31.0625 C 47.394531 31.972656 48.128906 32.707031 49.039062 32.707031 L 62.878906 32.707031 C 63.789062 32.707031 64.523438 31.972656 64.523438 31.0625 " fill-opacity="1" fill-rule="nonzero"/></g><g clip-path="url(#cf57192d3f)"><path fill="#ffffff" d="M 42.203125 31.0625 L 42.203125 17.222656 C 42.203125 16.3125 41.472656 15.578125 40.5625 15.578125 L 35.167969 15.578125 C 35.050781 14.273438 35.210938 13.058594 35.519531 11.914062 C 35.988281 10.183594 36.867188 8.585938 38.011719 7.207031 L 39.859375 4.992188 C 40.34375 4.40625 40.328125 3.554688 39.828125 2.984375 L 38.011719 0.902344 C 37.585938 0.402344 36.894531 0.242188 36.296875 0.460938 L 36.222656 0.492188 C 25.339844 4.390625 25.078125 15.578125 25.078125 15.578125 L 25.078125 31.0625 C 25.078125 31.972656 25.8125 32.707031 26.71875 32.707031 L 40.5625 32.707031 C 41.472656 32.707031 42.203125 31.972656 42.203125 31.0625 " fill-opacity="1" fill-rule="nonzero"/></g><g clip-path="url(#ff3407f34a)"><path fill="#ffffff" d="M 495.207031 238.101562 L 495.207031 251.941406 C 495.207031 252.851562 495.941406 253.585938 496.847656 253.585938 L 502.246094 253.585938 C 502.363281 254.890625 502.203125 256.105469 501.894531 257.25 C 501.4375 258.980469 500.542969 260.578125 499.402344 261.957031 L 497.554688 264.171875 C 497.070312 264.757812 497.085938 265.609375 497.582031 266.179688 L 499.414062 268.261719 C 499.839844 268.761719 500.53125 268.921875 501.132812 268.703125 L 501.191406 268.671875 C 512.085938 264.773438 512.335938 253.585938 512.335938 253.585938 L 512.335938 238.101562 C 512.335938 237.191406 511.601562 236.457031 510.691406 236.457031 L 496.847656 236.457031 C 495.941406 236.457031 495.207031 237.191406 495.207031 238.101562 " fill-opacity="1" fill-rule="nonzero"/></g><g clip-path="url(#fc0751aed2)"><path fill="#ffffff" d="M 517.523438 238.101562 L 517.523438 251.941406 C 517.523438 252.851562 518.257812 253.585938 519.167969 253.585938 L 524.5625 253.585938 C 524.667969 254.890625 524.519531 256.105469 524.210938 257.25 C 523.742188 258.980469 522.863281 260.578125 521.71875 261.957031 L 519.871094 264.171875 C 519.386719 264.757812 519.402344 265.609375 519.902344 266.179688 L 521.71875 268.261719 C 522.144531 268.761719 522.832031 268.921875 523.433594 268.703125 L 523.507812 268.671875 C 534.386719 264.773438 534.652344 253.585938 534.652344 253.585938 L 534.652344 238.101562 C 534.652344 237.191406 533.917969 236.457031 533.011719 236.457031 L 519.167969 236.457031 C 518.257812 236.457031 517.523438 237.191406 517.523438 238.101562 " fill-opacity="1" fill-rule="nonzero"/></g><g clip-path="url(#256cdbec9e)"><path fill="#ffffff" d="M 553.832031 102.519531 L 546.925781 102.519531 L 546.925781 18.980469 L 82.882812 18.980469 L 82.882812 12.089844 L 553.832031 12.089844 L 553.832031 102.519531 " fill-opacity="1" fill-rule="nonzero"/></g><g clip-path="url(#810a5e59db)"><path fill="#ffffff" d="M 471.511719 257.089844 L 0.558594 257.089844 L 0.558594 166.660156 L 7.464844 166.660156 L 7.464844 250.183594 L 471.511719 250.183594 L 471.511719 257.089844 " fill-opacity="1" fill-rule="nonzero"/></g><g fill="#ffffff" fill-opacity="1"><g transform="translate(32.048402, 101.518121)"><g><path d="M 38.890625 7.6875 C 39.148438 7.6875 39.367188 7.773438 39.546875 7.953125 C 39.734375 8.128906 39.828125 8.347656 39.828125 8.609375 C 39.828125 8.878906 39.726562 9.101562 39.53125 9.28125 C 39.332031 9.457031 39.101562 9.546875 38.84375 9.546875 C 37.164062 9.515625 35.269531 9.890625 33.15625 10.671875 C 31.039062 11.460938 28.832031 12.46875 26.53125 13.6875 C 24.238281 14.90625 22.007812 16.117188 19.84375 17.328125 C 16.957031 18.972656 14.347656 20.382812 12.015625 21.5625 C 9.679688 22.75 7.710938 23.34375 6.109375 23.34375 C 5.222656 23.34375 4.484375 23.128906 3.890625 22.703125 C 2.378906 21.546875 2.066406 19.035156 2.953125 15.171875 C 3.515625 12.804688 4.179688 10.070312 4.953125 6.96875 C 5.722656 3.863281 6.566406 0.566406 7.484375 -2.921875 C 8.398438 -6.421875 9.34375 -9.96875 10.3125 -13.5625 C 11.28125 -17.15625 12.238281 -20.609375 13.1875 -23.921875 C 14.46875 -28.359375 15.578125 -32.09375 16.515625 -35.125 C 17.453125 -38.164062 18.253906 -40.65625 18.921875 -42.59375 C 19.597656 -44.53125 20.164062 -46.019531 20.625 -47.0625 C 21.082031 -48.113281 21.472656 -48.859375 21.796875 -49.296875 C 22.128906 -49.742188 22.398438 -50 22.609375 -50.0625 C 22.828125 -50.132812 23.035156 -50.15625 23.234375 -50.125 C 23.859375 -50.019531 24.21875 -49.550781 24.3125 -48.71875 C 24.414062 -47.882812 24.398438 -46.578125 24.265625 -44.796875 C 24.234375 -44.535156 24.117188 -44.320312 23.921875 -44.15625 C 23.722656 -44 23.492188 -43.9375 23.234375 -43.96875 C 22.972656 -43.96875 22.75 -44.066406 22.5625 -44.265625 C 22.382812 -44.460938 22.316406 -44.691406 22.359375 -44.953125 C 22.421875 -45.546875 22.46875 -46.085938 22.5 -46.578125 C 22.101562 -45.691406 21.566406 -44.3125 20.890625 -42.4375 C 20.222656 -40.570312 19.378906 -37.988281 18.359375 -34.6875 C 17.347656 -31.382812 16.101562 -27.140625 14.625 -21.953125 C 13.707031 -18.742188 12.78125 -15.40625 11.84375 -11.9375 C 10.90625 -8.476562 9.992188 -5.066406 9.109375 -1.703125 C 8.222656 1.660156 7.410156 4.828125 6.671875 7.796875 C 5.929688 10.773438 5.316406 13.378906 4.828125 15.609375 C 4.523438 16.921875 4.363281 17.960938 4.34375 18.734375 C 4.332031 19.503906 4.398438 20.066406 4.546875 20.421875 C 4.703125 20.785156 4.859375 21.035156 5.015625 21.171875 C 5.484375 21.492188 6.195312 21.546875 7.15625 21.328125 C 8.125 21.117188 9.25 20.71875 10.53125 20.125 C 11.8125 19.539062 13.171875 18.851562 14.609375 18.0625 C 16.054688 17.28125 17.488281 16.492188 18.90625 15.703125 C 21.132812 14.421875 23.4375 13.15625 25.8125 11.90625 C 28.195312 10.664062 30.503906 9.632812 32.734375 8.8125 C 34.972656 7.988281 37.023438 7.613281 38.890625 7.6875 Z M 38.890625 7.6875 "/></g></g></g><g fill="#ffffff" fill-opacity="1"><g transform="translate(72.416803, 101.518121)"><g><path d="M 14.421875 -11.21875 C 14.648438 -11.09375 14.789062 -10.894531 14.84375 -10.625 C 14.894531 -10.363281 14.851562 -10.117188 14.71875 -9.890625 C 14.09375 -8.910156 13.304688 -7.8125 12.359375 -6.59375 C 11.410156 -5.382812 10.375 -4.226562 9.25 -3.125 C 8.132812 -2.03125 7.023438 -1.117188 5.921875 -0.390625 C 4.828125 0.328125 3.820312 0.6875 2.90625 0.6875 C 2.507812 0.6875 2.164062 0.625 1.875 0.5 C 0.757812 0 0.144531 -1.191406 0.03125 -3.078125 C -0.0820312 -4.960938 0.300781 -7.628906 1.1875 -11.078125 C 1.25 -11.335938 1.394531 -11.53125 1.625 -11.65625 C 1.851562 -11.789062 2.082031 -11.828125 2.3125 -11.765625 C 2.570312 -11.703125 2.769531 -11.554688 2.90625 -11.328125 C 3.039062 -11.097656 3.070312 -10.867188 3 -10.640625 C 2.476562 -8.535156 2.148438 -6.867188 2.015625 -5.640625 C 1.890625 -4.410156 1.863281 -3.484375 1.9375 -2.859375 C 2.019531 -2.234375 2.144531 -1.8125 2.3125 -1.59375 C 2.476562 -1.382812 2.578125 -1.28125 2.609375 -1.28125 C 3.035156 -1.082031 3.660156 -1.21875 4.484375 -1.6875 C 5.304688 -2.164062 6.222656 -2.875 7.234375 -3.8125 C 8.253906 -4.75 9.28125 -5.832031 10.3125 -7.0625 C 11.34375 -8.289062 12.269531 -9.582031 13.09375 -10.9375 C 13.257812 -11.164062 13.460938 -11.300781 13.703125 -11.34375 C 13.953125 -11.394531 14.191406 -11.351562 14.421875 -11.21875 Z M 2.8125 -15.171875 C 2.15625 -15.203125 1.816406 -15.390625 1.796875 -15.734375 C 1.773438 -16.078125 1.921875 -16.425781 2.234375 -16.78125 C 2.546875 -17.144531 2.867188 -17.394531 3.203125 -17.53125 C 3.722656 -17.695312 4.101562 -17.660156 4.34375 -17.421875 C 4.59375 -17.191406 4.707031 -16.894531 4.6875 -16.53125 C 4.675781 -16.175781 4.515625 -15.847656 4.203125 -15.546875 C 3.890625 -15.253906 3.425781 -15.128906 2.8125 -15.171875 Z M 2.8125 -15.171875 "/></g></g></g><g fill="#ffffff" fill-opacity="1"><g transform="translate(91.863543, 101.518121)"><g><path d="M 24.71875 -10.734375 C 24.945312 -10.566406 25.066406 -10.351562 25.078125 -10.09375 C 25.097656 -9.832031 25.023438 -9.601562 24.859375 -9.40625 C 23.617188 -7.957031 22.191406 -6.910156 20.578125 -6.265625 C 18.972656 -5.628906 17.445312 -5.507812 16 -5.90625 C 14.320312 -6.332031 13.023438 -7.367188 12.109375 -9.015625 C 11.285156 -6.148438 10.039062 -3.34375 8.375 -0.59375 C 7.257812 1.28125 6.125 2.832031 4.96875 4.0625 C 3.820312 5.289062 2.789062 6.050781 1.875 6.34375 C 1.539062 6.445312 1.226562 6.5 0.9375 6.5 C 0.570312 6.5 0.265625 6.425781 0.015625 6.28125 C -0.222656 6.132812 -0.410156 6.007812 -0.546875 5.90625 C -0.671875 5.738281 -0.835938 5.484375 -1.046875 5.140625 C -1.265625 4.796875 -1.414062 4.238281 -1.5 3.46875 C -1.582031 2.695312 -1.539062 1.585938 -1.375 0.140625 C -1.207031 -1.296875 -0.835938 -3.171875 -0.265625 -5.484375 C 0.304688 -7.796875 1.164062 -10.660156 2.3125 -14.078125 C 2.375 -14.304688 2.53125 -14.476562 2.78125 -14.59375 C 3.03125 -14.707031 3.269531 -14.734375 3.5 -14.671875 C 3.757812 -14.578125 3.945312 -14.410156 4.0625 -14.171875 C 4.175781 -13.941406 4.1875 -13.695312 4.09375 -13.4375 C 3.070312 -10.351562 2.289062 -7.753906 1.75 -5.640625 C 1.207031 -3.523438 0.835938 -1.800781 0.640625 -0.46875 C 0.441406 0.863281 0.347656 1.878906 0.359375 2.578125 C 0.378906 3.285156 0.445312 3.78125 0.5625 4.0625 C 0.675781 4.34375 0.75 4.5 0.78125 4.53125 C 0.820312 4.5625 0.863281 4.582031 0.90625 4.59375 C 0.957031 4.613281 1.082031 4.59375 1.28125 4.53125 C 1.96875 4.300781 2.800781 3.632812 3.78125 2.53125 C 4.769531 1.4375 5.765625 0.0625 6.765625 -1.59375 C 7.765625 -3.257812 8.640625 -5.039062 9.390625 -6.9375 C 10.148438 -8.84375 10.664062 -10.71875 10.9375 -12.5625 C 11 -13.082031 11.304688 -13.359375 11.859375 -13.390625 C 12.390625 -13.390625 12.703125 -13.128906 12.796875 -12.609375 C 13.328125 -9.847656 14.5625 -8.222656 16.5 -7.734375 C 17.582031 -7.429688 18.753906 -7.539062 20.015625 -8.0625 C 21.273438 -8.59375 22.398438 -9.453125 23.390625 -10.640625 C 23.585938 -10.835938 23.804688 -10.941406 24.046875 -10.953125 C 24.296875 -10.972656 24.519531 -10.898438 24.71875 -10.734375 Z M 24.71875 -10.734375 "/></g></g></g><g fill="#ffffff" fill-opacity="1"><g transform="translate(122.091088, 101.518121)"><g><path d="M 14.421875 -11.21875 C 14.648438 -11.09375 14.789062 -10.894531 14.84375 -10.625 C 14.894531 -10.363281 14.851562 -10.117188 14.71875 -9.890625 C 14.09375 -8.910156 13.304688 -7.8125 12.359375 -6.59375 C 11.410156 -5.382812 10.375 -4.226562 9.25 -3.125 C 8.132812 -2.03125 7.023438 -1.117188 5.921875 -0.390625 C 4.828125 0.328125 3.820312 0.6875 2.90625 0.6875 C 2.507812 0.6875 2.164062 0.625 1.875 0.5 C 0.757812 0 0.144531 -1.191406 0.03125 -3.078125 C -0.0820312 -4.960938 0.300781 -7.628906 1.1875 -11.078125 C 1.25 -11.335938 1.394531 -11.53125 1.625 -11.65625 C 1.851562 -11.789062 2.082031 -11.828125 2.3125 -11.765625 C 2.570312 -11.703125 2.769531 -11.554688 2.90625 -11.328125 C 3.039062 -11.097656 3.070312 -10.867188 3 -10.640625 C 2.476562 -8.535156 2.148438 -6.867188 2.015625 -5.640625 C 1.890625 -4.410156 1.863281 -3.484375 1.9375 -2.859375 C 2.019531 -2.234375 2.144531 -1.8125 2.3125 -1.59375 C 2.476562 -1.382812 2.578125 -1.28125 2.609375 -1.28125 C 3.035156 -1.082031 3.660156 -1.21875 4.484375 -1.6875 C 5.304688 -2.164062 6.222656 -2.875 7.234375 -3.8125 C 8.253906 -4.75 9.28125 -5.832031 10.3125 -7.0625 C 11.34375 -8.289062 12.269531 -9.582031 13.09375 -10.9375 C 13.257812 -11.164062 13.460938 -11.300781 13.703125 -11.34375 C 13.953125 -11.394531 14.191406 -11.351562 14.421875 -11.21875 Z M 2.8125 -15.171875 C 2.15625 -15.203125 1.816406 -15.390625 1.796875 -15.734375 C 1.773438 -16.078125 1.921875 -16.425781 2.234375 -16.78125 C 2.546875 -17.144531 2.867188 -17.394531 3.203125 -17.53125 C 3.722656 -17.695312 4.101562 -17.660156 4.34375 -17.421875 C 4.59375 -17.191406 4.707031 -16.894531 4.6875 -16.53125 C 4.675781 -16.175781 4.515625 -15.847656 4.203125 -15.546875 C 3.890625 -15.253906 3.425781 -15.128906 2.8125 -15.171875 Z M 2.8125 -15.171875 "/></g></g></g><g fill="#ffffff" fill-opacity="1"><g transform="translate(141.537827, 101.518121)"><g><path d="M 19.84375 -10.984375 C 20.070312 -10.847656 20.21875 -10.65625 20.28125 -10.40625 C 20.351562 -10.164062 20.320312 -9.929688 20.1875 -9.703125 C 18.644531 -6.972656 17.253906 -4.878906 16.015625 -3.421875 C 14.785156 -1.960938 13.535156 -1.316406 12.265625 -1.484375 C 10.617188 -1.671875 9.320312 -3.441406 8.375 -6.796875 C 8.039062 -7.878906 7.75 -8.65625 7.5 -9.125 C 7.257812 -9.601562 7.066406 -9.898438 6.921875 -10.015625 C 6.773438 -10.128906 6.664062 -10.1875 6.59375 -10.1875 C 6.5 -10.21875 6.300781 -10.117188 6 -9.890625 C 5.707031 -9.660156 5.28125 -9.148438 4.71875 -8.359375 C 4.164062 -7.578125 3.476562 -6.359375 2.65625 -4.703125 C 1.832031 -3.046875 0.832031 -0.773438 -0.34375 2.109375 C -0.507812 2.503906 -0.789062 2.703125 -1.1875 2.703125 C -1.28125 2.703125 -1.359375 2.6875 -1.421875 2.65625 C -1.984375 2.53125 -2.234375 2.1875 -2.171875 1.625 C -2.003906 0.28125 -1.707031 -1.273438 -1.28125 -3.046875 C -0.851562 -4.828125 -0.382812 -6.632812 0.125 -8.46875 C 0.632812 -10.300781 1.101562 -11.941406 1.53125 -13.390625 C 1.625 -13.722656 1.710938 -14.023438 1.796875 -14.296875 C 1.878906 -14.578125 1.953125 -14.847656 2.015625 -15.109375 C 2.117188 -15.378906 2.285156 -15.570312 2.515625 -15.6875 C 2.742188 -15.800781 2.972656 -15.820312 3.203125 -15.75 C 3.460938 -15.6875 3.65625 -15.539062 3.78125 -15.3125 C 3.914062 -15.082031 3.9375 -14.835938 3.84375 -14.578125 C 3.769531 -14.304688 3.691406 -14.03125 3.609375 -13.75 C 3.535156 -13.476562 3.445312 -13.175781 3.34375 -12.84375 C 3.113281 -11.988281 2.847656 -11.050781 2.546875 -10.03125 C 2.253906 -9.019531 1.960938 -7.988281 1.671875 -6.9375 C 2.785156 -9.039062 3.738281 -10.4375 4.53125 -11.125 C 5.320312 -11.8125 6.046875 -12.140625 6.703125 -12.109375 C 7.617188 -12.046875 8.335938 -11.535156 8.859375 -10.578125 C 9.390625 -9.628906 9.832031 -8.53125 10.1875 -7.28125 C 10.6875 -5.570312 11.144531 -4.488281 11.5625 -4.03125 C 11.988281 -3.570312 12.300781 -3.34375 12.5 -3.34375 C 12.925781 -3.28125 13.425781 -3.519531 14 -4.0625 C 14.582031 -4.601562 15.160156 -5.289062 15.734375 -6.125 C 16.304688 -6.96875 16.847656 -7.796875 17.359375 -8.609375 C 17.867188 -9.429688 18.253906 -10.109375 18.515625 -10.640625 C 18.640625 -10.867188 18.832031 -11.015625 19.09375 -11.078125 C 19.363281 -11.140625 19.613281 -11.109375 19.84375 -10.984375 Z M 19.84375 -10.984375 "/></g></g></g><g fill="#ffffff" fill-opacity="1"><g transform="translate(166.104216, 101.518121)"><g><path d="M 22.59375 -10.9375 C 22.726562 -10.695312 22.769531 -10.445312 22.71875 -10.1875 C 22.664062 -9.925781 22.523438 -9.726562 22.296875 -9.59375 C 20.398438 -8.351562 18.234375 -6.898438 15.796875 -5.234375 C 13.367188 -3.578125 10.894531 -1.664062 8.375 0.5 C 7.257812 7.1875 6.0625 12.9375 4.78125 17.75 C 3.5 22.5625 2.175781 26.53125 0.8125 29.65625 C -0.550781 32.789062 -1.890625 35.175781 -3.203125 36.8125 C -4.515625 38.457031 -5.757812 39.445312 -6.9375 39.78125 C -7.300781 39.875 -7.644531 39.921875 -7.96875 39.921875 C -9.019531 39.921875 -9.925781 39.460938 -10.6875 38.546875 C -11.34375 37.691406 -11.800781 36.519531 -12.0625 35.03125 C -12.320312 33.539062 -12.367188 31.875 -12.203125 30.03125 C -12.046875 28.582031 -11.671875 26.75 -11.078125 24.53125 C -10.484375 22.320312 -9.429688 19.859375 -7.921875 17.140625 C -5.921875 13.523438 -3.65625 10.253906 -1.125 7.328125 C 1.394531 4.410156 3.96875 1.800781 6.59375 -0.5 C 6.820312 -1.84375 7.039062 -3.25 7.25 -4.71875 C 7.46875 -6.195312 7.675781 -7.707031 7.875 -9.25 C 7.414062 -8.5625 6.941406 -7.863281 6.453125 -7.15625 C 5.960938 -6.457031 5.46875 -5.78125 4.96875 -5.125 C 4.476562 -4.5 3.925781 -3.914062 3.3125 -3.375 C 2.707031 -2.832031 2.078125 -2.660156 1.421875 -2.859375 C 1.128906 -2.921875 0.84375 -3.109375 0.5625 -3.421875 C 0.28125 -3.734375 0.109375 -4.265625 0.046875 -5.015625 C -0.015625 -5.835938 0.0703125 -6.894531 0.3125 -8.1875 C 0.5625 -9.488281 0.945312 -10.828125 1.46875 -12.203125 C 2 -13.585938 2.65625 -14.84375 3.4375 -15.96875 C 4.226562 -17.101562 5.117188 -17.914062 6.109375 -18.40625 C 6.691406 -18.707031 7.398438 -18.863281 8.234375 -18.875 C 9.078125 -18.894531 9.992188 -18.460938 10.984375 -17.578125 C 11.179688 -17.378906 11.285156 -17.15625 11.296875 -16.90625 C 11.316406 -16.664062 11.226562 -16.445312 11.03125 -16.25 C 10.863281 -16.050781 10.648438 -15.941406 10.390625 -15.921875 C 10.128906 -15.910156 9.898438 -15.988281 9.703125 -16.15625 C 8.515625 -17.238281 7.316406 -17.238281 6.109375 -16.15625 C 5.347656 -15.457031 4.679688 -14.550781 4.109375 -13.4375 C 3.535156 -12.320312 3.066406 -11.171875 2.703125 -9.984375 C 2.347656 -8.804688 2.113281 -7.734375 2 -6.765625 C 1.882812 -5.796875 1.890625 -5.132812 2.015625 -4.78125 C 2.117188 -4.84375 2.289062 -4.976562 2.53125 -5.1875 C 2.78125 -5.40625 3.085938 -5.757812 3.453125 -6.25 C 4.109375 -7.101562 4.769531 -8.019531 5.4375 -9 C 6.113281 -9.988281 6.726562 -10.910156 7.28125 -11.765625 C 7.84375 -12.617188 8.253906 -13.289062 8.515625 -13.78125 C 8.773438 -14.207031 9.15625 -14.335938 9.65625 -14.171875 C 10.144531 -14.046875 10.359375 -13.71875 10.296875 -13.1875 C 10.066406 -11.257812 9.828125 -9.390625 9.578125 -7.578125 C 9.328125 -5.773438 9.070312 -4.035156 8.8125 -2.359375 C 11.113281 -4.234375 13.335938 -5.890625 15.484375 -7.328125 C 17.628906 -8.773438 19.554688 -10.054688 21.265625 -11.171875 C 21.492188 -11.335938 21.734375 -11.382812 21.984375 -11.3125 C 22.234375 -11.25 22.4375 -11.125 22.59375 -10.9375 Z M -7.484375 37.953125 C -6.691406 37.722656 -5.753906 36.953125 -4.671875 35.640625 C -3.585938 34.328125 -2.429688 32.304688 -1.203125 29.578125 C 0.0234375 26.859375 1.269531 23.28125 2.53125 18.84375 C 3.800781 14.414062 4.992188 8.988281 6.109375 2.5625 C 3.835938 4.625 1.640625 6.941406 -0.484375 9.515625 C -2.617188 12.097656 -4.539062 14.945312 -6.25 18.0625 C -7.957031 21.15625 -9.113281 24.019531 -9.71875 26.65625 C -10.332031 29.300781 -10.546875 31.550781 -10.359375 33.40625 C -10.179688 35.257812 -9.796875 36.582031 -9.203125 37.375 C -8.710938 37.957031 -8.140625 38.148438 -7.484375 37.953125 Z M -7.484375 37.953125 "/></g></g></g><g fill="#ffffff" fill-opacity="1"><g transform="translate(193.378118, 101.518121)"><g/></g></g><g fill="#ffffff" fill-opacity="1"><g transform="translate(215.483144, 101.518121)"><g><path d="M 14.421875 -11.21875 C 14.648438 -11.09375 14.789062 -10.894531 14.84375 -10.625 C 14.894531 -10.363281 14.851562 -10.117188 14.71875 -9.890625 C 14.09375 -8.910156 13.304688 -7.8125 12.359375 -6.59375 C 11.410156 -5.382812 10.375 -4.226562 9.25 -3.125 C 8.132812 -2.03125 7.023438 -1.117188 5.921875 -0.390625 C 4.828125 0.328125 3.820312 0.6875 2.90625 0.6875 C 2.507812 0.6875 2.164062 0.625 1.875 0.5 C 0.757812 0 0.144531 -1.191406 0.03125 -3.078125 C -0.0820312 -4.960938 0.300781 -7.628906 1.1875 -11.078125 C 1.25 -11.335938 1.394531 -11.53125 1.625 -11.65625 C 1.851562 -11.789062 2.082031 -11.828125 2.3125 -11.765625 C 2.570312 -11.703125 2.769531 -11.554688 2.90625 -11.328125 C 3.039062 -11.097656 3.070312 -10.867188 3 -10.640625 C 2.476562 -8.535156 2.148438 -6.867188 2.015625 -5.640625 C 1.890625 -4.410156 1.863281 -3.484375 1.9375 -2.859375 C 2.019531 -2.234375 2.144531 -1.8125 2.3125 -1.59375 C 2.476562 -1.382812 2.578125 -1.28125 2.609375 -1.28125 C 3.035156 -1.082031 3.660156 -1.21875 4.484375 -1.6875 C 5.304688 -2.164062 6.222656 -2.875 7.234375 -3.8125 C 8.253906 -4.75 9.28125 -5.832031 10.3125 -7.0625 C 11.34375 -8.289062 12.269531 -9.582031 13.09375 -10.9375 C 13.257812 -11.164062 13.460938 -11.300781 13.703125 -11.34375 C 13.953125 -11.394531 14.191406 -11.351562 14.421875 -11.21875 Z M 2.8125 -15.171875 C 2.15625 -15.203125 1.816406 -15.390625 1.796875 -15.734375 C 1.773438 -16.078125 1.921875 -16.425781 2.234375 -16.78125 C 2.546875 -17.144531 2.867188 -17.394531 3.203125 -17.53125 C 3.722656 -17.695312 4.101562 -17.660156 4.34375 -17.421875 C 4.59375 -17.191406 4.707031 -16.894531 4.6875 -16.53125 C 4.675781 -16.175781 4.515625 -15.847656 4.203125 -15.546875 C 3.890625 -15.253906 3.425781 -15.128906 2.8125 -15.171875 Z M 2.8125 -15.171875 "/></g></g></g><g fill="#ffffff" fill-opacity="1"><g transform="translate(234.929883, 101.518121)"><g><path d="M 19.84375 -10.984375 C 20.070312 -10.847656 20.21875 -10.65625 20.28125 -10.40625 C 20.351562 -10.164062 20.320312 -9.929688 20.1875 -9.703125 C 18.644531 -6.972656 17.253906 -4.878906 16.015625 -3.421875 C 14.785156 -1.960938 13.535156 -1.316406 12.265625 -1.484375 C 10.617188 -1.671875 9.320312 -3.441406 8.375 -6.796875 C 8.039062 -7.878906 7.75 -8.65625 7.5 -9.125 C 7.257812 -9.601562 7.066406 -9.898438 6.921875 -10.015625 C 6.773438 -10.128906 6.664062 -10.1875 6.59375 -10.1875 C 6.5 -10.21875 6.300781 -10.117188 6 -9.890625 C 5.707031 -9.660156 5.28125 -9.148438 4.71875 -8.359375 C 4.164062 -7.578125 3.476562 -6.359375 2.65625 -4.703125 C 1.832031 -3.046875 0.832031 -0.773438 -0.34375 2.109375 C -0.507812 2.503906 -0.789062 2.703125 -1.1875 2.703125 C -1.28125 2.703125 -1.359375 2.6875 -1.421875 2.65625 C -1.984375 2.53125 -2.234375 2.1875 -2.171875 1.625 C -2.003906 0.28125 -1.707031 -1.273438 -1.28125 -3.046875 C -0.851562 -4.828125 -0.382812 -6.632812 0.125 -8.46875 C 0.632812 -10.300781 1.101562 -11.941406 1.53125 -13.390625 C 1.625 -13.722656 1.710938 -14.023438 1.796875 -14.296875 C 1.878906 -14.578125 1.953125 -14.847656 2.015625 -15.109375 C 2.117188 -15.378906 2.285156 -15.570312 2.515625 -15.6875 C 2.742188 -15.800781 2.972656 -15.820312 3.203125 -15.75 C 3.460938 -15.6875 3.65625 -15.539062 3.78125 -15.3125 C 3.914062 -15.082031 3.9375 -14.835938 3.84375 -14.578125 C 3.769531 -14.304688 3.691406 -14.03125 3.609375 -13.75 C 3.535156 -13.476562 3.445312 -13.175781 3.34375 -12.84375 C 3.113281 -11.988281 2.847656 -11.050781 2.546875 -10.03125 C 2.253906 -9.019531 1.960938 -7.988281 1.671875 -6.9375 C 2.785156 -9.039062 3.738281 -10.4375 4.53125 -11.125 C 5.320312 -11.8125 6.046875 -12.140625 6.703125 -12.109375 C 7.617188 -12.046875 8.335938 -11.535156 8.859375 -10.578125 C 9.390625 -9.628906 9.832031 -8.53125 10.1875 -7.28125 C 10.6875 -5.570312 11.144531 -4.488281 11.5625 -4.03125 C 11.988281 -3.570312 12.300781 -3.34375 12.5 -3.34375 C 12.925781 -3.28125 13.425781 -3.519531 14 -4.0625 C 14.582031 -4.601562 15.160156 -5.289062 15.734375 -6.125 C 16.304688 -6.96875 16.847656 -7.796875 17.359375 -8.609375 C 17.867188 -9.429688 18.253906 -10.109375 18.515625 -10.640625 C 18.640625 -10.867188 18.832031 -11.015625 19.09375 -11.078125 C 19.363281 -11.140625 19.613281 -11.109375 19.84375 -10.984375 Z M 19.84375 -10.984375 "/></g></g></g><g fill="#ffffff" fill-opacity="1"><g transform="translate(259.496255, 101.518121)"><g/></g></g><g fill="#ffffff" fill-opacity="1"><g transform="translate(281.601281, 101.518121)"><g><path d="M 41.546875 -29.046875 C 41.710938 -28.847656 41.78125 -28.617188 41.75 -28.359375 C 41.71875 -28.097656 41.585938 -27.882812 41.359375 -27.71875 C 40.960938 -27.457031 40.582031 -27.472656 40.21875 -27.765625 C 39.789062 -27.929688 38.8125 -28.046875 37.28125 -28.109375 C 35.757812 -28.179688 33.847656 -28.222656 31.546875 -28.234375 C 29.253906 -28.253906 26.726562 -28.242188 23.96875 -28.203125 C 21.21875 -28.171875 18.390625 -28.128906 15.484375 -28.078125 C 12.578125 -28.035156 9.765625 -27.984375 7.046875 -27.921875 C 6.023438 -23.648438 4.957031 -19.007812 3.84375 -14 C 2.726562 -9 1.628906 -3.921875 0.546875 1.234375 C -0.867188 7.992188 -1.960938 13.539062 -2.734375 17.875 C -3.503906 22.207031 -4.003906 25.34375 -4.234375 27.28125 C -4.171875 27.28125 -4.101562 27.296875 -4.03125 27.328125 C -3.769531 27.390625 -3.585938 27.539062 -3.484375 27.78125 C -3.390625 28.03125 -3.394531 28.269531 -3.5 28.5 C -3.695312 29.0625 -3.914062 29.578125 -4.15625 30.046875 C -4.40625 30.523438 -4.742188 30.765625 -5.171875 30.765625 C -5.265625 30.765625 -5.378906 30.75 -5.515625 30.71875 C -5.972656 30.550781 -6.222656 30.195312 -6.265625 29.65625 C -6.316406 29.113281 -6.28125 28.367188 -6.15625 27.421875 C -6.019531 26.046875 -5.722656 24.0625 -5.265625 21.46875 C -4.867188 19.039062 -4.359375 16.203125 -3.734375 12.953125 C -3.117188 9.703125 -2.398438 6.140625 -1.578125 2.265625 C -0.492188 -2.984375 0.617188 -8.203125 1.765625 -13.390625 C 2.921875 -18.578125 4.023438 -23.398438 5.078125 -27.859375 C 3.492188 -27.828125 1.992188 -27.796875 0.578125 -27.765625 C -0.828125 -27.734375 -2.101562 -27.703125 -3.25 -27.671875 C -5.445312 -27.609375 -7.363281 -27.554688 -9 -27.515625 C -10.644531 -27.484375 -11.8125 -27.46875 -12.5 -27.46875 C -12.769531 -27.46875 -12.992188 -27.554688 -13.171875 -27.734375 C -13.347656 -27.921875 -13.4375 -28.144531 -13.4375 -28.40625 C -13.4375 -28.664062 -13.347656 -28.882812 -13.171875 -29.0625 C -12.992188 -29.25 -12.769531 -29.34375 -12.5 -29.34375 C -11.8125 -29.34375 -10.65625 -29.363281 -9.03125 -29.40625 C -7.40625 -29.457031 -5.492188 -29.519531 -3.296875 -29.59375 C -1.722656 -29.625 -0.195312 -29.65625 1.28125 -29.6875 C 2.757812 -29.71875 4.1875 -29.75 5.5625 -29.78125 C 6.050781 -31.882812 6.535156 -33.863281 7.015625 -35.71875 C 7.492188 -37.570312 7.945312 -39.269531 8.375 -40.8125 C 8.4375 -41.070312 8.582031 -41.269531 8.8125 -41.40625 C 9.039062 -41.539062 9.269531 -41.570312 9.5 -41.5 C 9.757812 -41.4375 9.957031 -41.289062 10.09375 -41.0625 C 10.226562 -40.832031 10.257812 -40.585938 10.1875 -40.328125 C 9.40625 -37.398438 8.503906 -33.90625 7.484375 -29.84375 C 12.609375 -29.9375 16.988281 -30.003906 20.625 -30.046875 C 24.269531 -30.097656 27.320312 -30.125 29.78125 -30.125 C 32.25 -30.125 34.242188 -30.09375 35.765625 -30.03125 C 37.296875 -29.96875 38.453125 -29.894531 39.234375 -29.8125 C 40.023438 -29.726562 40.582031 -29.617188 40.90625 -29.484375 C 41.238281 -29.359375 41.453125 -29.210938 41.546875 -29.046875 Z M 41.546875 -29.046875 "/></g></g></g><g fill="#ffffff" fill-opacity="1"><g transform="translate(295.140716, 101.518121)"><g><path d="M 23.34375 -11.28125 C 23.53125 -11.144531 23.65625 -10.945312 23.71875 -10.6875 C 23.789062 -10.425781 23.757812 -10.179688 23.625 -9.953125 C 22.050781 -7.421875 20.65625 -5.363281 19.4375 -3.78125 C 18.226562 -2.207031 17.1875 -1.007812 16.3125 -0.1875 C 15.445312 0.625 14.71875 1.175781 14.125 1.46875 C 13.539062 1.769531 13.066406 1.921875 12.703125 1.921875 C 12.335938 1.921875 12.054688 1.90625 11.859375 1.875 C 11.109375 1.675781 10.550781 1.222656 10.1875 0.515625 C 9.832031 -0.191406 9.597656 -0.921875 9.484375 -1.671875 C 9.367188 -2.429688 9.289062 -3.003906 9.25 -3.390625 C 9.1875 -4.546875 9.054688 -5.316406 8.859375 -5.703125 C 8.660156 -6.097656 8.515625 -6.296875 8.421875 -6.296875 C 8.390625 -6.296875 8.375 -6.296875 8.375 -6.296875 C 7.945312 -6.296875 7.238281 -5.695312 6.25 -4.5 C 5.269531 -3.300781 4.113281 -1.425781 2.78125 1.125 C 1.445312 3.6875 0.0625 7.019531 -1.375 11.125 C -1.507812 11.550781 -1.804688 11.765625 -2.265625 11.765625 C -2.328125 11.765625 -2.394531 11.765625 -2.46875 11.765625 C -2.988281 11.628906 -3.234375 11.300781 -3.203125 10.78125 C -3.171875 10.226562 -3.019531 9.226562 -2.75 7.78125 C -2.488281 6.332031 -2.132812 4.597656 -1.6875 2.578125 C -1.25 0.566406 -0.757812 -1.617188 -0.21875 -3.984375 C 0.320312 -6.347656 0.878906 -8.742188 1.453125 -11.171875 C 2.023438 -13.597656 2.570312 -15.921875 3.09375 -18.140625 C 3.625 -20.359375 4.101562 -22.351562 4.53125 -24.125 C 4.957031 -25.894531 5.300781 -27.3125 5.5625 -28.375 C 5.820312 -29.445312 5.953125 -30 5.953125 -30.03125 C 6.710938 -33.050781 7.550781 -35.800781 8.46875 -38.28125 C 9.382812 -40.757812 10.296875 -42.753906 11.203125 -44.265625 C 12.109375 -45.773438 12.90625 -46.59375 13.59375 -46.71875 C 14.144531 -46.820312 14.570312 -46.660156 14.875 -46.234375 C 15.332031 -45.578125 15.289062 -44.207031 14.75 -42.125 C 14.207031 -40.039062 13.222656 -37.40625 11.796875 -34.21875 C 10.367188 -31.03125 8.550781 -27.46875 6.34375 -23.53125 C 5.757812 -21.070312 5.113281 -18.378906 4.40625 -15.453125 C 3.695312 -12.535156 3.003906 -9.597656 2.328125 -6.640625 C 1.660156 -3.691406 1.050781 -0.96875 0.5 1.53125 C 1.382812 -0.34375 2.289062 -2.035156 3.21875 -3.546875 C 4.15625 -5.054688 5.09375 -6.226562 6.03125 -7.0625 C 6.96875 -7.90625 7.847656 -8.273438 8.671875 -8.171875 C 9.390625 -8.078125 9.921875 -7.71875 10.265625 -7.09375 C 10.609375 -6.46875 10.835938 -5.800781 10.953125 -5.09375 C 11.066406 -4.382812 11.125 -3.867188 11.125 -3.546875 C 11.226562 -2.328125 11.394531 -1.4375 11.625 -0.875 C 11.851562 -0.320312 12.082031 -0.03125 12.3125 0 C 12.375 0.03125 12.59375 -0.0078125 12.96875 -0.125 C 13.351562 -0.238281 13.910156 -0.609375 14.640625 -1.234375 C 15.378906 -1.859375 16.351562 -2.929688 17.5625 -4.453125 C 18.78125 -5.984375 20.257812 -8.160156 22 -10.984375 C 22.132812 -11.179688 22.332031 -11.3125 22.59375 -11.375 C 22.863281 -11.4375 23.113281 -11.40625 23.34375 -11.28125 Z M 13.25 -43.96875 C 12.6875 -43.144531 11.9375 -41.691406 11 -39.609375 C 10.0625 -37.523438 9.117188 -34.691406 8.171875 -31.109375 C 9.847656 -34.429688 11.070312 -37.15625 11.84375 -39.28125 C 12.613281 -41.414062 13.082031 -42.976562 13.25 -43.96875 Z M 13.25 -43.96875 "/></g></g></g><g fill="#ffffff" fill-opacity="1"><g transform="translate(323.349951, 101.518121)"><g><path d="M 16.640625 -10.984375 C 16.867188 -10.847656 17 -10.648438 17.03125 -10.390625 C 17.0625 -10.128906 17.015625 -9.898438 16.890625 -9.703125 C 14.953125 -7.003906 13.175781 -4.773438 11.5625 -3.015625 C 9.957031 -1.265625 8.351562 0.179688 6.75 1.328125 C 5.53125 2.179688 4.332031 2.609375 3.15625 2.609375 C 2.226562 2.609375 1.421875 2.363281 0.734375 1.875 C 0.273438 1.539062 -0.171875 0.957031 -0.609375 0.125 C -1.054688 -0.707031 -1.296875 -1.921875 -1.328125 -3.515625 C -1.359375 -5.109375 -0.960938 -7.203125 -0.140625 -9.796875 C -0.140625 -9.796875 -0.140625 -9.8125 -0.140625 -9.84375 C 0.835938 -13 1.988281 -15.40625 3.3125 -17.0625 C 4.644531 -18.71875 5.789062 -19.5625 6.75 -19.59375 C 7.5 -19.625 7.988281 -19.296875 8.21875 -18.609375 C 8.582031 -17.660156 8.15625 -16.304688 6.9375 -14.546875 C 5.726562 -12.796875 3.941406 -10.929688 1.578125 -8.953125 C 0.859375 -6.660156 0.515625 -4.863281 0.546875 -3.5625 C 0.578125 -2.269531 0.753906 -1.335938 1.078125 -0.765625 C 1.410156 -0.191406 1.675781 0.175781 1.875 0.34375 C 2.851562 1.0625 4.113281 0.863281 5.65625 -0.25 C 7.164062 -1.300781 8.691406 -2.671875 10.234375 -4.359375 C 11.785156 -6.046875 13.476562 -8.1875 15.3125 -10.78125 C 15.476562 -10.976562 15.691406 -11.097656 15.953125 -11.140625 C 16.210938 -11.191406 16.441406 -11.140625 16.640625 -10.984375 Z M 6.40625 -17.53125 C 6.039062 -17.300781 5.546875 -16.816406 4.921875 -16.078125 C 4.296875 -15.335938 3.65625 -14.257812 3 -12.84375 C 4.1875 -14 5.023438 -14.976562 5.515625 -15.78125 C 6.003906 -16.582031 6.300781 -17.164062 6.40625 -17.53125 Z M 6.40625 -17.53125 "/></g></g></g><g fill="#ffffff" fill-opacity="1"><g transform="translate(344.66734, 101.518121)"><g/></g></g><g fill="#ffffff" fill-opacity="1"><g transform="translate(366.772348, 101.518121)"><g><path d="M 27.765625 -11.03125 C 27.960938 -10.863281 28.066406 -10.648438 28.078125 -10.390625 C 28.097656 -10.128906 28.023438 -9.898438 27.859375 -9.703125 C 23.691406 -4.804688 20.394531 -2.816406 17.96875 -3.734375 C 16.226562 -4.390625 15.296875 -6.476562 15.171875 -10 C 14.804688 -9.34375 14.414062 -8.59375 14 -7.75 C 13.59375 -6.914062 13.257812 -6.238281 13 -5.71875 C 12.800781 -5.21875 12.601562 -4.769531 12.40625 -4.375 C 12.207031 -3.988281 12.023438 -3.660156 11.859375 -3.390625 C 11.765625 -3.203125 11.59375 -2.914062 11.34375 -2.53125 C 11.101562 -2.15625 10.789062 -1.828125 10.40625 -1.546875 C 10.03125 -1.265625 9.597656 -1.191406 9.109375 -1.328125 C 8.515625 -1.492188 8.066406 -1.925781 7.765625 -2.625 C 7.472656 -3.332031 7.296875 -4.101562 7.234375 -4.9375 C 7.171875 -5.78125 7.140625 -6.460938 7.140625 -6.984375 C 7.140625 -7.410156 7.140625 -7.820312 7.140625 -8.21875 C 7.140625 -8.613281 7.15625 -8.976562 7.1875 -9.3125 C 6.039062 -7.664062 4.941406 -5.960938 3.890625 -4.203125 C 2.835938 -2.453125 1.722656 -0.441406 0.546875 1.828125 C 0.148438 2.578125 -0.273438 2.953125 -0.734375 2.953125 C -0.898438 2.953125 -1.050781 2.90625 -1.1875 2.8125 C -1.34375 2.738281 -1.488281 2.628906 -1.625 2.484375 C -1.757812 2.335938 -1.832031 2.039062 -1.84375 1.59375 C -1.863281 1.15625 -1.796875 0.476562 -1.640625 -0.4375 C -1.492188 -1.363281 -1.207031 -2.644531 -0.78125 -4.28125 C -0.289062 -6.28125 0.285156 -8.265625 0.953125 -10.234375 C 1.628906 -12.203125 2.3125 -13.976562 3 -15.5625 C 3.101562 -15.820312 3.273438 -16 3.515625 -16.09375 C 3.765625 -16.195312 4.003906 -16.179688 4.234375 -16.046875 C 4.492188 -15.953125 4.664062 -15.78125 4.75 -15.53125 C 4.832031 -15.289062 4.820312 -15.050781 4.71875 -14.8125 C 3.832031 -12.75 3.035156 -10.59375 2.328125 -8.34375 C 1.628906 -6.09375 1.082031 -4.132812 0.6875 -2.46875 C 1.707031 -4.269531 2.707031 -5.945312 3.6875 -7.5 C 4.675781 -9.0625 5.710938 -10.582031 6.796875 -12.0625 C 6.890625 -12.195312 7.0625 -12.378906 7.3125 -12.609375 C 7.5625 -12.835938 7.898438 -12.882812 8.328125 -12.75 C 8.742188 -12.582031 8.976562 -12.269531 9.03125 -11.8125 C 9.082031 -11.351562 9.09375 -10.582031 9.0625 -9.5 C 9.0625 -9.132812 9.050781 -8.738281 9.03125 -8.3125 C 9.019531 -7.894531 9.015625 -7.453125 9.015625 -6.984375 C 9.015625 -6.003906 9.078125 -5.203125 9.203125 -4.578125 C 9.335938 -3.953125 9.453125 -3.523438 9.546875 -3.296875 C 9.617188 -3.359375 9.710938 -3.472656 9.828125 -3.640625 C 9.941406 -3.804688 10.078125 -4.019531 10.234375 -4.28125 C 10.367188 -4.507812 10.523438 -4.820312 10.703125 -5.21875 C 10.890625 -5.613281 11.097656 -6.039062 11.328125 -6.5 C 12.179688 -8.332031 12.878906 -9.738281 13.421875 -10.71875 C 13.960938 -11.707031 14.425781 -12.382812 14.8125 -12.75 C 15.207031 -13.113281 15.617188 -13.242188 16.046875 -13.140625 C 16.578125 -13.015625 16.878906 -12.695312 16.953125 -12.1875 C 17.035156 -11.675781 17.078125 -11.273438 17.078125 -10.984375 C 17.046875 -9.441406 17.171875 -8.191406 17.453125 -7.234375 C 17.734375 -6.285156 18.132812 -5.710938 18.65625 -5.515625 C 19.25 -5.285156 20.191406 -5.546875 21.484375 -6.296875 C 22.785156 -7.054688 24.4375 -8.601562 26.4375 -10.9375 C 26.601562 -11.125 26.816406 -11.226562 27.078125 -11.25 C 27.335938 -11.269531 27.566406 -11.195312 27.765625 -11.03125 Z M 27.765625 -11.03125 "/></g></g></g><g fill="#ffffff" fill-opacity="1"><g transform="translate(399.412031, 101.518121)"><g><path d="M 17.828125 -10.734375 C 18.054688 -10.566406 18.1875 -10.351562 18.21875 -10.09375 C 18.25 -9.832031 18.179688 -9.601562 18.015625 -9.40625 C 17.160156 -8.320312 16.164062 -7.351562 15.03125 -6.5 C 13.90625 -5.644531 12.726562 -5.007812 11.5 -4.59375 C 10.269531 -4.1875 9.078125 -4.113281 7.921875 -4.375 C 7.460938 -3.226562 6.8125 -2.34375 5.96875 -1.71875 C 5.132812 -1.09375 4.296875 -0.78125 3.453125 -0.78125 C 3.453125 -0.78125 3.441406 -0.78125 3.421875 -0.78125 C 3.398438 -0.78125 3.390625 -0.78125 3.390625 -0.78125 C 2.503906 -0.820312 1.722656 -1.128906 1.046875 -1.703125 C 0.378906 -2.273438 -0.0820312 -3.070312 -0.34375 -4.09375 C -0.632812 -5.238281 -0.679688 -6.328125 -0.484375 -7.359375 C -0.296875 -8.390625 0.0546875 -9.300781 0.578125 -10.09375 C 1.109375 -10.882812 1.703125 -11.492188 2.359375 -11.921875 C 2.585938 -12.078125 2.851562 -12.109375 3.15625 -12.015625 C 3.445312 -12.734375 3.863281 -13.289062 4.40625 -13.6875 C 4.945312 -14.082031 5.515625 -14.226562 6.109375 -14.125 C 6.460938 -14.0625 6.851562 -13.84375 7.28125 -13.46875 C 7.707031 -13.09375 8.050781 -12.421875 8.3125 -11.453125 C 8.582031 -10.484375 8.664062 -9.0625 8.5625 -7.1875 C 8.53125 -6.863281 8.484375 -6.535156 8.421875 -6.203125 C 9.304688 -6.035156 10.238281 -6.132812 11.21875 -6.5 C 12.207031 -6.863281 13.160156 -7.410156 14.078125 -8.140625 C 14.992188 -8.878906 15.800781 -9.691406 16.5 -10.578125 C 16.65625 -10.773438 16.863281 -10.890625 17.125 -10.921875 C 17.394531 -10.960938 17.628906 -10.898438 17.828125 -10.734375 Z M 3.453125 -2.703125 C 3.878906 -2.703125 4.351562 -2.898438 4.875 -3.296875 C 5.394531 -3.691406 5.820312 -4.285156 6.15625 -5.078125 C 4.96875 -5.734375 4.117188 -6.484375 3.609375 -7.328125 C 3.109375 -8.179688 2.84375 -9.035156 2.8125 -9.890625 C 2.113281 -9.234375 1.65625 -8.394531 1.4375 -7.375 C 1.226562 -6.363281 1.242188 -5.445312 1.484375 -4.625 C 1.578125 -4.269531 1.769531 -3.859375 2.0625 -3.390625 C 2.363281 -2.929688 2.828125 -2.703125 3.453125 -2.703125 Z M 6.640625 -7.28125 C 6.710938 -8.59375 6.691406 -9.609375 6.578125 -10.328125 C 6.460938 -11.054688 6.320312 -11.550781 6.15625 -11.8125 C 5.988281 -12.070312 5.875 -12.222656 5.8125 -12.265625 C 5.78125 -12.265625 5.765625 -12.265625 5.765625 -12.265625 C 5.660156 -12.265625 5.507812 -12.164062 5.3125 -11.96875 C 5.113281 -11.769531 4.953125 -11.472656 4.828125 -11.078125 C 4.628906 -10.453125 4.644531 -9.769531 4.875 -9.03125 C 5.101562 -8.289062 5.691406 -7.609375 6.640625 -6.984375 C 6.640625 -7.085938 6.640625 -7.1875 6.640625 -7.28125 Z M 6.640625 -7.28125 "/></g></g></g><g fill="#ffffff" fill-opacity="1"><g transform="translate(422.157024, 101.518121)"><g><path d="M 27.765625 -11.03125 C 27.960938 -10.863281 28.066406 -10.648438 28.078125 -10.390625 C 28.097656 -10.128906 28.023438 -9.898438 27.859375 -9.703125 C 23.691406 -4.804688 20.394531 -2.816406 17.96875 -3.734375 C 16.226562 -4.390625 15.296875 -6.476562 15.171875 -10 C 14.804688 -9.34375 14.414062 -8.59375 14 -7.75 C 13.59375 -6.914062 13.257812 -6.238281 13 -5.71875 C 12.800781 -5.21875 12.601562 -4.769531 12.40625 -4.375 C 12.207031 -3.988281 12.023438 -3.660156 11.859375 -3.390625 C 11.765625 -3.203125 11.59375 -2.914062 11.34375 -2.53125 C 11.101562 -2.15625 10.789062 -1.828125 10.40625 -1.546875 C 10.03125 -1.265625 9.597656 -1.191406 9.109375 -1.328125 C 8.515625 -1.492188 8.066406 -1.925781 7.765625 -2.625 C 7.472656 -3.332031 7.296875 -4.101562 7.234375 -4.9375 C 7.171875 -5.78125 7.140625 -6.460938 7.140625 -6.984375 C 7.140625 -7.410156 7.140625 -7.820312 7.140625 -8.21875 C 7.140625 -8.613281 7.15625 -8.976562 7.1875 -9.3125 C 6.039062 -7.664062 4.941406 -5.960938 3.890625 -4.203125 C 2.835938 -2.453125 1.722656 -0.441406 0.546875 1.828125 C 0.148438 2.578125 -0.273438 2.953125 -0.734375 2.953125 C -0.898438 2.953125 -1.050781 2.90625 -1.1875 2.8125 C -1.34375 2.738281 -1.488281 2.628906 -1.625 2.484375 C -1.757812 2.335938 -1.832031 2.039062 -1.84375 1.59375 C -1.863281 1.15625 -1.796875 0.476562 -1.640625 -0.4375 C -1.492188 -1.363281 -1.207031 -2.644531 -0.78125 -4.28125 C -0.289062 -6.28125 0.285156 -8.265625 0.953125 -10.234375 C 1.628906 -12.203125 2.3125 -13.976562 3 -15.5625 C 3.101562 -15.820312 3.273438 -16 3.515625 -16.09375 C 3.765625 -16.195312 4.003906 -16.179688 4.234375 -16.046875 C 4.492188 -15.953125 4.664062 -15.78125 4.75 -15.53125 C 4.832031 -15.289062 4.820312 -15.050781 4.71875 -14.8125 C 3.832031 -12.75 3.035156 -10.59375 2.328125 -8.34375 C 1.628906 -6.09375 1.082031 -4.132812 0.6875 -2.46875 C 1.707031 -4.269531 2.707031 -5.945312 3.6875 -7.5 C 4.675781 -9.0625 5.710938 -10.582031 6.796875 -12.0625 C 6.890625 -12.195312 7.0625 -12.378906 7.3125 -12.609375 C 7.5625 -12.835938 7.898438 -12.882812 8.328125 -12.75 C 8.742188 -12.582031 8.976562 -12.269531 9.03125 -11.8125 C 9.082031 -11.351562 9.09375 -10.582031 9.0625 -9.5 C 9.0625 -9.132812 9.050781 -8.738281 9.03125 -8.3125 C 9.019531 -7.894531 9.015625 -7.453125 9.015625 -6.984375 C 9.015625 -6.003906 9.078125 -5.203125 9.203125 -4.578125 C 9.335938 -3.953125 9.453125 -3.523438 9.546875 -3.296875 C 9.617188 -3.359375 9.710938 -3.472656 9.828125 -3.640625 C 9.941406 -3.804688 10.078125 -4.019531 10.234375 -4.28125 C 10.367188 -4.507812 10.523438 -4.820312 10.703125 -5.21875 C 10.890625 -5.613281 11.097656 -6.039062 11.328125 -6.5 C 12.179688 -8.332031 12.878906 -9.738281 13.421875 -10.71875 C 13.960938 -11.707031 14.425781 -12.382812 14.8125 -12.75 C 15.207031 -13.113281 15.617188 -13.242188 16.046875 -13.140625 C 16.578125 -13.015625 16.878906 -12.695312 16.953125 -12.1875 C 17.035156 -11.675781 17.078125 -11.273438 17.078125 -10.984375 C 17.046875 -9.441406 17.171875 -8.191406 17.453125 -7.234375 C 17.734375 -6.285156 18.132812 -5.710938 18.65625 -5.515625 C 19.25 -5.285156 20.191406 -5.546875 21.484375 -6.296875 C 22.785156 -7.054688 24.4375 -8.601562 26.4375 -10.9375 C 26.601562 -11.125 26.816406 -11.226562 27.078125 -11.25 C 27.335938 -11.269531 27.566406 -11.195312 27.765625 -11.03125 Z M 27.765625 -11.03125 "/></g></g></g><g fill="#ffffff" fill-opacity="1"><g transform="translate(454.796706, 101.518121)"><g><path d="M 16.640625 -10.984375 C 16.867188 -10.847656 17 -10.648438 17.03125 -10.390625 C 17.0625 -10.128906 17.015625 -9.898438 16.890625 -9.703125 C 14.953125 -7.003906 13.175781 -4.773438 11.5625 -3.015625 C 9.957031 -1.265625 8.351562 0.179688 6.75 1.328125 C 5.53125 2.179688 4.332031 2.609375 3.15625 2.609375 C 2.226562 2.609375 1.421875 2.363281 0.734375 1.875 C 0.273438 1.539062 -0.171875 0.957031 -0.609375 0.125 C -1.054688 -0.707031 -1.296875 -1.921875 -1.328125 -3.515625 C -1.359375 -5.109375 -0.960938 -7.203125 -0.140625 -9.796875 C -0.140625 -9.796875 -0.140625 -9.8125 -0.140625 -9.84375 C 0.835938 -13 1.988281 -15.40625 3.3125 -17.0625 C 4.644531 -18.71875 5.789062 -19.5625 6.75 -19.59375 C 7.5 -19.625 7.988281 -19.296875 8.21875 -18.609375 C 8.582031 -17.660156 8.15625 -16.304688 6.9375 -14.546875 C 5.726562 -12.796875 3.941406 -10.929688 1.578125 -8.953125 C 0.859375 -6.660156 0.515625 -4.863281 0.546875 -3.5625 C 0.578125 -2.269531 0.753906 -1.335938 1.078125 -0.765625 C 1.410156 -0.191406 1.675781 0.175781 1.875 0.34375 C 2.851562 1.0625 4.113281 0.863281 5.65625 -0.25 C 7.164062 -1.300781 8.691406 -2.671875 10.234375 -4.359375 C 11.785156 -6.046875 13.476562 -8.1875 15.3125 -10.78125 C 15.476562 -10.976562 15.691406 -11.097656 15.953125 -11.140625 C 16.210938 -11.191406 16.441406 -11.140625 16.640625 -10.984375 Z M 6.40625 -17.53125 C 6.039062 -17.300781 5.546875 -16.816406 4.921875 -16.078125 C 4.296875 -15.335938 3.65625 -14.257812 3 -12.84375 C 4.1875 -14 5.023438 -14.976562 5.515625 -15.78125 C 6.003906 -16.582031 6.300781 -17.164062 6.40625 -17.53125 Z M 6.40625 -17.53125 "/></g></g></g><g fill="#ffffff" fill-opacity="1"><g transform="translate(476.114095, 101.518121)"><g><path d="M 19.84375 -10.984375 C 20.070312 -10.847656 20.21875 -10.65625 20.28125 -10.40625 C 20.351562 -10.164062 20.320312 -9.929688 20.1875 -9.703125 C 18.644531 -6.972656 17.253906 -4.878906 16.015625 -3.421875 C 14.785156 -1.960938 13.535156 -1.316406 12.265625 -1.484375 C 10.617188 -1.671875 9.320312 -3.441406 8.375 -6.796875 C 8.039062 -7.878906 7.75 -8.65625 7.5 -9.125 C 7.257812 -9.601562 7.066406 -9.898438 6.921875 -10.015625 C 6.773438 -10.128906 6.664062 -10.1875 6.59375 -10.1875 C 6.5 -10.21875 6.300781 -10.117188 6 -9.890625 C 5.707031 -9.660156 5.28125 -9.148438 4.71875 -8.359375 C 4.164062 -7.578125 3.476562 -6.359375 2.65625 -4.703125 C 1.832031 -3.046875 0.832031 -0.773438 -0.34375 2.109375 C -0.507812 2.503906 -0.789062 2.703125 -1.1875 2.703125 C -1.28125 2.703125 -1.359375 2.6875 -1.421875 2.65625 C -1.984375 2.53125 -2.234375 2.1875 -2.171875 1.625 C -2.003906 0.28125 -1.707031 -1.273438 -1.28125 -3.046875 C -0.851562 -4.828125 -0.382812 -6.632812 0.125 -8.46875 C 0.632812 -10.300781 1.101562 -11.941406 1.53125 -13.390625 C 1.625 -13.722656 1.710938 -14.023438 1.796875 -14.296875 C 1.878906 -14.578125 1.953125 -14.847656 2.015625 -15.109375 C 2.117188 -15.378906 2.285156 -15.570312 2.515625 -15.6875 C 2.742188 -15.800781 2.972656 -15.820312 3.203125 -15.75 C 3.460938 -15.6875 3.65625 -15.539062 3.78125 -15.3125 C 3.914062 -15.082031 3.9375 -14.835938 3.84375 -14.578125 C 3.769531 -14.304688 3.691406 -14.03125 3.609375 -13.75 C 3.535156 -13.476562 3.445312 -13.175781 3.34375 -12.84375 C 3.113281 -11.988281 2.847656 -11.050781 2.546875 -10.03125 C 2.253906 -9.019531 1.960938 -7.988281 1.671875 -6.9375 C 2.785156 -9.039062 3.738281 -10.4375 4.53125 -11.125 C 5.320312 -11.8125 6.046875 -12.140625 6.703125 -12.109375 C 7.617188 -12.046875 8.335938 -11.535156 8.859375 -10.578125 C 9.390625 -9.628906 9.832031 -8.53125 10.1875 -7.28125 C 10.6875 -5.570312 11.144531 -4.488281 11.5625 -4.03125 C 11.988281 -3.570312 12.300781 -3.34375 12.5 -3.34375 C 12.925781 -3.28125 13.425781 -3.519531 14 -4.0625 C 14.582031 -4.601562 15.160156 -5.289062 15.734375 -6.125 C 16.304688 -6.96875 16.847656 -7.796875 17.359375 -8.609375 C 17.867188 -9.429688 18.253906 -10.109375 18.515625 -10.640625 C 18.640625 -10.867188 18.832031 -11.015625 19.09375 -11.078125 C 19.363281 -11.140625 19.613281 -11.109375 19.84375 -10.984375 Z M 19.84375 -10.984375 "/></g></g></g><g fill="#ffffff" fill-opacity="1"><g transform="translate(500.680467, 101.518121)"><g><path d="M 41.546875 -29.046875 C 41.710938 -28.847656 41.78125 -28.617188 41.75 -28.359375 C 41.71875 -28.097656 41.585938 -27.882812 41.359375 -27.71875 C 40.960938 -27.457031 40.582031 -27.472656 40.21875 -27.765625 C 39.789062 -27.929688 38.8125 -28.046875 37.28125 -28.109375 C 35.757812 -28.179688 33.847656 -28.222656 31.546875 -28.234375 C 29.253906 -28.253906 26.726562 -28.242188 23.96875 -28.203125 C 21.21875 -28.171875 18.390625 -28.128906 15.484375 -28.078125 C 12.578125 -28.035156 9.765625 -27.984375 7.046875 -27.921875 C 6.023438 -23.648438 4.957031 -19.007812 3.84375 -14 C 2.726562 -9 1.628906 -3.921875 0.546875 1.234375 C -0.867188 7.992188 -1.960938 13.539062 -2.734375 17.875 C -3.503906 22.207031 -4.003906 25.34375 -4.234375 27.28125 C -4.171875 27.28125 -4.101562 27.296875 -4.03125 27.328125 C -3.769531 27.390625 -3.585938 27.539062 -3.484375 27.78125 C -3.390625 28.03125 -3.394531 28.269531 -3.5 28.5 C -3.695312 29.0625 -3.914062 29.578125 -4.15625 30.046875 C -4.40625 30.523438 -4.742188 30.765625 -5.171875 30.765625 C -5.265625 30.765625 -5.378906 30.75 -5.515625 30.71875 C -5.972656 30.550781 -6.222656 30.195312 -6.265625 29.65625 C -6.316406 29.113281 -6.28125 28.367188 -6.15625 27.421875 C -6.019531 26.046875 -5.722656 24.0625 -5.265625 21.46875 C -4.867188 19.039062 -4.359375 16.203125 -3.734375 12.953125 C -3.117188 9.703125 -2.398438 6.140625 -1.578125 2.265625 C -0.492188 -2.984375 0.617188 -8.203125 1.765625 -13.390625 C 2.921875 -18.578125 4.023438 -23.398438 5.078125 -27.859375 C 3.492188 -27.828125 1.992188 -27.796875 0.578125 -27.765625 C -0.828125 -27.734375 -2.101562 -27.703125 -3.25 -27.671875 C -5.445312 -27.609375 -7.363281 -27.554688 -9 -27.515625 C -10.644531 -27.484375 -11.8125 -27.46875 -12.5 -27.46875 C -12.769531 -27.46875 -12.992188 -27.554688 -13.171875 -27.734375 C -13.347656 -27.921875 -13.4375 -28.144531 -13.4375 -28.40625 C -13.4375 -28.664062 -13.347656 -28.882812 -13.171875 -29.0625 C -12.992188 -29.25 -12.769531 -29.34375 -12.5 -29.34375 C -11.8125 -29.34375 -10.65625 -29.363281 -9.03125 -29.40625 C -7.40625 -29.457031 -5.492188 -29.519531 -3.296875 -29.59375 C -1.722656 -29.625 -0.195312 -29.65625 1.28125 -29.6875 C 2.757812 -29.71875 4.1875 -29.75 5.5625 -29.78125 C 6.050781 -31.882812 6.535156 -33.863281 7.015625 -35.71875 C 7.492188 -37.570312 7.945312 -39.269531 8.375 -40.8125 C 8.4375 -41.070312 8.582031 -41.269531 8.8125 -41.40625 C 9.039062 -41.539062 9.269531 -41.570312 9.5 -41.5 C 9.757812 -41.4375 9.957031 -41.289062 10.09375 -41.0625 C 10.226562 -40.832031 10.257812 -40.585938 10.1875 -40.328125 C 9.40625 -37.398438 8.503906 -33.90625 7.484375 -29.84375 C 12.609375 -29.9375 16.988281 -30.003906 20.625 -30.046875 C 24.269531 -30.097656 27.320312 -30.125 29.78125 -30.125 C 32.25 -30.125 34.242188 -30.09375 35.765625 -30.03125 C 37.296875 -29.96875 38.453125 -29.894531 39.234375 -29.8125 C 40.023438 -29.726562 40.582031 -29.617188 40.90625 -29.484375 C 41.238281 -29.359375 41.453125 -29.210938 41.546875 -29.046875 Z M 41.546875 -29.046875 "/></g></g></g><g fill="#ffffff" fill-opacity="1"><g transform="translate(514.21992, 101.518121)"><g><path d="M 4.71875 -2.0625 C 5.34375 -1.601562 5.65625 -0.960938 5.65625 -0.140625 C 5.65625 0.773438 5.285156 1.722656 4.546875 2.703125 C 3.816406 3.691406 3.003906 4.515625 2.109375 5.171875 C 1.953125 5.296875 1.757812 5.359375 1.53125 5.359375 C 1.195312 5.359375 0.945312 5.226562 0.78125 4.96875 C 0.625 4.769531 0.5625 4.539062 0.59375 4.28125 C 0.625 4.019531 0.753906 3.804688 0.984375 3.640625 C 1.734375 3.046875 2.390625 2.378906 2.953125 1.640625 C 3.515625 0.910156 3.796875 0.316406 3.796875 -0.140625 C 3.796875 -0.304688 3.726562 -0.441406 3.59375 -0.546875 C 3.363281 -0.703125 3.234375 -0.90625 3.203125 -1.15625 C 3.171875 -1.40625 3.234375 -1.644531 3.390625 -1.875 C 3.523438 -2.070312 3.722656 -2.191406 3.984375 -2.234375 C 4.242188 -2.285156 4.488281 -2.226562 4.71875 -2.0625 Z M 4.71875 -2.0625 "/></g></g></g><g transform="matrix(1, 0, 0, 1, 79, 146)"><g clip-path="url(#9c59769109)"><g fill="#ffffff" fill-opacity="1"><g transform="translate(6.033733, 47.921375)"><g><path d="M 14.46875 -46.125 C 14.894531 -45.507812 14.90625 -44.25 14.5 -42.34375 C 14.09375 -40.4375 13.25 -38.078125 11.96875 -35.265625 C 10.6875 -32.460938 8.976562 -29.359375 6.84375 -25.953125 C 6.8125 -25.910156 6.78125 -25.875 6.75 -25.84375 C 5.894531 -22.363281 5.046875 -18.816406 4.203125 -15.203125 C 3.367188 -11.597656 2.570312 -8.054688 1.8125 -4.578125 C 1.0625 -1.097656 0.375 2.171875 -0.25 5.234375 C -0.875 8.304688 -1.40625 11.039062 -1.84375 13.4375 C -2.289062 15.832031 -2.613281 17.753906 -2.8125 19.203125 C -2.769531 19.203125 -2.734375 19.203125 -2.703125 19.203125 C -2.441406 19.296875 -2.253906 19.457031 -2.140625 19.6875 C -2.023438 19.914062 -2.015625 20.164062 -2.109375 20.4375 C -2.347656 21.0625 -2.585938 21.625 -2.828125 22.125 C -3.078125 22.632812 -3.414062 22.890625 -3.84375 22.890625 C -3.9375 22.890625 -4.050781 22.875 -4.1875 22.84375 C -4.476562 22.75 -4.6875 22.546875 -4.8125 22.234375 C -4.945312 21.921875 -4.960938 21.296875 -4.859375 20.359375 C -4.765625 19.421875 -4.554688 17.984375 -4.234375 16.046875 C -3.640625 12.503906 -2.753906 7.878906 -1.578125 2.171875 C -0.722656 -1.835938 0.171875 -5.914062 1.109375 -10.0625 C 2.046875 -14.21875 2.972656 -18.222656 3.890625 -22.078125 C 4.804688 -25.929688 5.691406 -29.4375 6.546875 -32.59375 C 6.710938 -33.21875 6.957031 -34.085938 7.28125 -35.203125 C 7.613281 -36.316406 7.992188 -37.515625 8.421875 -38.796875 C 8.847656 -40.078125 9.320312 -41.304688 9.84375 -42.484375 C 10.375 -43.671875 10.914062 -44.648438 11.46875 -45.421875 C 12.03125 -46.191406 12.585938 -46.625 13.140625 -46.71875 C 13.703125 -46.820312 14.144531 -46.625 14.46875 -46.125 Z M 8.46875 -32.453125 C 10.039062 -35.398438 11.144531 -37.859375 11.78125 -39.828125 C 12.425781 -41.796875 12.800781 -43.222656 12.90625 -44.109375 C 12.4375 -43.453125 11.804688 -42.210938 11.015625 -40.390625 C 10.234375 -38.578125 9.382812 -35.929688 8.46875 -32.453125 Z M 8.46875 -32.453125 "/></g></g></g><g fill="#ffffff" fill-opacity="1"><g transform="translate(20.509711, 47.921375)"><g><path d="M 17.828125 -10.734375 C 18.054688 -10.566406 18.1875 -10.351562 18.21875 -10.09375 C 18.25 -9.832031 18.179688 -9.601562 18.015625 -9.40625 C 17.160156 -8.320312 16.164062 -7.351562 15.03125 -6.5 C 13.90625 -5.644531 12.726562 -5.007812 11.5 -4.59375 C 10.269531 -4.1875 9.078125 -4.113281 7.921875 -4.375 C 7.460938 -3.226562 6.8125 -2.34375 5.96875 -1.71875 C 5.132812 -1.09375 4.296875 -0.78125 3.453125 -0.78125 C 3.453125 -0.78125 3.441406 -0.78125 3.421875 -0.78125 C 3.398438 -0.78125 3.390625 -0.78125 3.390625 -0.78125 C 2.503906 -0.820312 1.722656 -1.128906 1.046875 -1.703125 C 0.378906 -2.273438 -0.0820312 -3.070312 -0.34375 -4.09375 C -0.632812 -5.238281 -0.679688 -6.328125 -0.484375 -7.359375 C -0.296875 -8.390625 0.0546875 -9.300781 0.578125 -10.09375 C 1.109375 -10.882812 1.703125 -11.492188 2.359375 -11.921875 C 2.585938 -12.078125 2.851562 -12.109375 3.15625 -12.015625 C 3.445312 -12.734375 3.863281 -13.289062 4.40625 -13.6875 C 4.945312 -14.082031 5.515625 -14.226562 6.109375 -14.125 C 6.460938 -14.0625 6.851562 -13.84375 7.28125 -13.46875 C 7.707031 -13.09375 8.050781 -12.421875 8.3125 -11.453125 C 8.582031 -10.484375 8.664062 -9.0625 8.5625 -7.1875 C 8.53125 -6.863281 8.484375 -6.535156 8.421875 -6.203125 C 9.304688 -6.035156 10.238281 -6.132812 11.21875 -6.5 C 12.207031 -6.863281 13.160156 -7.410156 14.078125 -8.140625 C 14.992188 -8.878906 15.800781 -9.691406 16.5 -10.578125 C 16.65625 -10.773438 16.863281 -10.890625 17.125 -10.921875 C 17.394531 -10.960938 17.628906 -10.898438 17.828125 -10.734375 Z M 3.453125 -2.703125 C 3.878906 -2.703125 4.351562 -2.898438 4.875 -3.296875 C 5.394531 -3.691406 5.820312 -4.285156 6.15625 -5.078125 C 4.96875 -5.734375 4.117188 -6.484375 3.609375 -7.328125 C 3.109375 -8.179688 2.84375 -9.035156 2.8125 -9.890625 C 2.113281 -9.234375 1.65625 -8.394531 1.4375 -7.375 C 1.226562 -6.363281 1.242188 -5.445312 1.484375 -4.625 C 1.578125 -4.269531 1.769531 -3.859375 2.0625 -3.390625 C 2.363281 -2.929688 2.828125 -2.703125 3.453125 -2.703125 Z M 6.640625 -7.28125 C 6.710938 -8.59375 6.691406 -9.609375 6.578125 -10.328125 C 6.460938 -11.054688 6.320312 -11.550781 6.15625 -11.8125 C 5.988281 -12.070312 5.875 -12.222656 5.8125 -12.265625 C 5.78125 -12.265625 5.765625 -12.265625 5.765625 -12.265625 C 5.660156 -12.265625 5.507812 -12.164062 5.3125 -11.96875 C 5.113281 -11.769531 4.953125 -11.472656 4.828125 -11.078125 C 4.628906 -10.453125 4.644531 -9.769531 4.875 -9.03125 C 5.101562 -8.289062 5.691406 -7.609375 6.640625 -6.984375 C 6.640625 -7.085938 6.640625 -7.1875 6.640625 -7.28125 Z M 6.640625 -7.28125 "/></g></g></g><g fill="#ffffff" fill-opacity="1"><g transform="translate(43.25723, 47.921375)"><g><path d="M 21.90625 -11.28125 C 22.101562 -11.113281 22.21875 -10.894531 22.25 -10.625 C 22.28125 -10.363281 22.195312 -10.140625 22 -9.953125 C 21.050781 -8.828125 20.003906 -7.59375 18.859375 -6.25 C 17.710938 -4.90625 16.585938 -3.59375 15.484375 -2.3125 C 14.378906 -1.03125 13.429688 0.0703125 12.640625 1 C 11.859375 1.9375 11.335938 2.570312 11.078125 2.90625 C 10.515625 3.625 9.972656 4.328125 9.453125 5.015625 C 9.878906 6.921875 9.921875 8.71875 9.578125 10.40625 C 9.234375 12.101562 8.65625 13.609375 7.84375 14.921875 C 7.039062 16.234375 6.195312 17.25 5.3125 17.96875 C 4.394531 18.757812 3.539062 19.15625 2.75 19.15625 C 2.257812 19.15625 1.851562 18.988281 1.53125 18.65625 C 0.96875 18.132812 0.773438 17.351562 0.953125 16.3125 C 1.140625 15.28125 1.5625 14.109375 2.21875 12.796875 C 2.875 11.484375 3.660156 10.117188 4.578125 8.703125 C 5.492188 7.296875 6.429688 5.9375 7.390625 4.625 C 7.222656 4.03125 6.988281 3.429688 6.6875 2.828125 C 6.394531 2.222656 6.050781 1.609375 5.65625 0.984375 C 4.3125 -1.046875 3.171875 -2.957031 2.234375 -4.75 C 1.304688 -6.539062 0.875 -8.175781 0.9375 -9.65625 C 1.101562 -12.375 2.316406 -14.40625 4.578125 -15.75 C 5.492188 -16.3125 6.460938 -16.640625 7.484375 -16.734375 C 8.503906 -16.835938 9.441406 -16.691406 10.296875 -16.296875 C 10.523438 -16.160156 10.675781 -15.96875 10.75 -15.71875 C 10.832031 -15.476562 10.828125 -15.242188 10.734375 -15.015625 C 10.597656 -14.785156 10.40625 -14.628906 10.15625 -14.546875 C 9.914062 -14.460938 9.679688 -14.472656 9.453125 -14.578125 C 8.273438 -15.128906 6.976562 -14.976562 5.5625 -14.125 C 3.851562 -13.113281 2.953125 -11.585938 2.859375 -9.546875 C 2.785156 -8.335938 3.191406 -6.910156 4.078125 -5.265625 C 4.972656 -3.628906 6.023438 -1.90625 7.234375 -0.09375 C 7.859375 0.851562 8.367188 1.820312 8.765625 2.8125 C 9.023438 2.476562 9.300781 2.113281 9.59375 1.71875 C 9.863281 1.394531 10.398438 0.757812 11.203125 -0.1875 C 12.003906 -1.144531 12.945312 -2.265625 14.03125 -3.546875 C 15.113281 -4.828125 16.238281 -6.140625 17.40625 -7.484375 C 18.570312 -8.828125 19.628906 -10.054688 20.578125 -11.171875 C 20.742188 -11.367188 20.957031 -11.484375 21.21875 -11.515625 C 21.476562 -11.546875 21.707031 -11.46875 21.90625 -11.28125 Z M 5.90625 14.46875 C 6.132812 14.113281 6.410156 13.597656 6.734375 12.921875 C 7.066406 12.253906 7.351562 11.4375 7.59375 10.46875 C 7.84375 9.5 7.921875 8.421875 7.828125 7.234375 C 6.316406 9.367188 5.191406 11.140625 4.453125 12.546875 C 3.710938 13.960938 3.234375 15.039062 3.015625 15.78125 C 2.804688 16.519531 2.738281 17.003906 2.8125 17.234375 C 3.039062 17.234375 3.445312 17.019531 4.03125 16.59375 C 4.625 16.164062 5.25 15.457031 5.90625 14.46875 Z M 5.90625 14.46875 "/></g></g></g><g clip-path="url(#4ee28932a8)"><g fill="#ffffff" fill-opacity="1"><g transform="translate(70.091289, 47.921375)"><g><path d="M 41.546875 -29.046875 C 41.710938 -28.847656 41.78125 -28.617188 41.75 -28.359375 C 41.71875 -28.097656 41.585938 -27.882812 41.359375 -27.71875 C 40.960938 -27.457031 40.582031 -27.472656 40.21875 -27.765625 C 39.789062 -27.929688 38.8125 -28.046875 37.28125 -28.109375 C 35.757812 -28.179688 33.847656 -28.222656 31.546875 -28.234375 C 29.253906 -28.253906 26.726562 -28.242188 23.96875 -28.203125 C 21.21875 -28.171875 18.390625 -28.128906 15.484375 -28.078125 C 12.578125 -28.035156 9.765625 -27.984375 7.046875 -27.921875 C 6.023438 -23.648438 4.957031 -19.007812 3.84375 -14 C 2.726562 -9 1.628906 -3.921875 0.546875 1.234375 C -0.867188 7.992188 -1.960938 13.539062 -2.734375 17.875 C -3.503906 22.207031 -4.003906 25.34375 -4.234375 27.28125 C -4.171875 27.28125 -4.101562 27.296875 -4.03125 27.328125 C -3.769531 27.390625 -3.585938 27.539062 -3.484375 27.78125 C -3.390625 28.03125 -3.394531 28.269531 -3.5 28.5 C -3.695312 29.0625 -3.914062 29.578125 -4.15625 30.046875 C -4.40625 30.523438 -4.742188 30.765625 -5.171875 30.765625 C -5.265625 30.765625 -5.378906 30.75 -5.515625 30.71875 C -5.972656 30.550781 -6.222656 30.195312 -6.265625 29.65625 C -6.316406 29.113281 -6.28125 28.367188 -6.15625 27.421875 C -6.019531 26.046875 -5.722656 24.0625 -5.265625 21.46875 C -4.867188 19.039062 -4.359375 16.203125 -3.734375 12.953125 C -3.117188 9.703125 -2.398438 6.140625 -1.578125 2.265625 C -0.492188 -2.984375 0.617188 -8.203125 1.765625 -13.390625 C 2.921875 -18.578125 4.023438 -23.398438 5.078125 -27.859375 C 3.492188 -27.828125 1.992188 -27.796875 0.578125 -27.765625 C -0.828125 -27.734375 -2.101562 -27.703125 -3.25 -27.671875 C -5.445312 -27.609375 -7.363281 -27.554688 -9 -27.515625 C -10.644531 -27.484375 -11.8125 -27.46875 -12.5 -27.46875 C -12.769531 -27.46875 -12.992188 -27.554688 -13.171875 -27.734375 C -13.347656 -27.921875 -13.4375 -28.144531 -13.4375 -28.40625 C -13.4375 -28.664062 -13.347656 -28.882812 -13.171875 -29.0625 C -12.992188 -29.25 -12.769531 -29.34375 -12.5 -29.34375 C -11.8125 -29.34375 -10.65625 -29.363281 -9.03125 -29.40625 C -7.40625 -29.457031 -5.492188 -29.519531 -3.296875 -29.59375 C -1.722656 -29.625 -0.195312 -29.65625 1.28125 -29.6875 C 2.757812 -29.71875 4.1875 -29.75 5.5625 -29.78125 C 6.050781 -31.882812 6.535156 -33.863281 7.015625 -35.71875 C 7.492188 -37.570312 7.945312 -39.269531 8.375 -40.8125 C 8.4375 -41.070312 8.582031 -41.269531 8.8125 -41.40625 C 9.039062 -41.539062 9.269531 -41.570312 9.5 -41.5 C 9.757812 -41.4375 9.957031 -41.289062 10.09375 -41.0625 C 10.226562 -40.832031 10.257812 -40.585938 10.1875 -40.328125 C 9.40625 -37.398438 8.503906 -33.90625 7.484375 -29.84375 C 12.609375 -29.9375 16.988281 -30.003906 20.625 -30.046875 C 24.269531 -30.097656 27.320312 -30.125 29.78125 -30.125 C 32.25 -30.125 34.242188 -30.09375 35.765625 -30.03125 C 37.296875 -29.96875 38.453125 -29.894531 39.234375 -29.8125 C 40.023438 -29.726562 40.582031 -29.617188 40.90625 -29.484375 C 41.238281 -29.359375 41.453125 -29.210938 41.546875 -29.046875 Z M 41.546875 -29.046875 "/></g></g></g></g><g fill="#ffffff" fill-opacity="1"><g transform="translate(83.631792, 47.921375)"><g/></g></g><g fill="#ffffff" fill-opacity="1"><g transform="translate(105.739253, 47.921375)"><g><path d="M 14.421875 -11.21875 C 14.648438 -11.09375 14.789062 -10.894531 14.84375 -10.625 C 14.894531 -10.363281 14.851562 -10.117188 14.71875 -9.890625 C 14.09375 -8.910156 13.304688 -7.8125 12.359375 -6.59375 C 11.410156 -5.382812 10.375 -4.226562 9.25 -3.125 C 8.132812 -2.03125 7.023438 -1.117188 5.921875 -0.390625 C 4.828125 0.328125 3.820312 0.6875 2.90625 0.6875 C 2.507812 0.6875 2.164062 0.625 1.875 0.5 C 0.757812 0 0.144531 -1.191406 0.03125 -3.078125 C -0.0820312 -4.960938 0.300781 -7.628906 1.1875 -11.078125 C 1.25 -11.335938 1.394531 -11.53125 1.625 -11.65625 C 1.851562 -11.789062 2.082031 -11.828125 2.3125 -11.765625 C 2.570312 -11.703125 2.769531 -11.554688 2.90625 -11.328125 C 3.039062 -11.097656 3.070312 -10.867188 3 -10.640625 C 2.476562 -8.535156 2.148438 -6.867188 2.015625 -5.640625 C 1.890625 -4.410156 1.863281 -3.484375 1.9375 -2.859375 C 2.019531 -2.234375 2.144531 -1.8125 2.3125 -1.59375 C 2.476562 -1.382812 2.578125 -1.28125 2.609375 -1.28125 C 3.035156 -1.082031 3.660156 -1.21875 4.484375 -1.6875 C 5.304688 -2.164062 6.222656 -2.875 7.234375 -3.8125 C 8.253906 -4.75 9.28125 -5.832031 10.3125 -7.0625 C 11.34375 -8.289062 12.269531 -9.582031 13.09375 -10.9375 C 13.257812 -11.164062 13.460938 -11.300781 13.703125 -11.34375 C 13.953125 -11.394531 14.191406 -11.351562 14.421875 -11.21875 Z M 2.8125 -15.171875 C 2.15625 -15.203125 1.816406 -15.390625 1.796875 -15.734375 C 1.773438 -16.078125 1.921875 -16.425781 2.234375 -16.78125 C 2.546875 -17.144531 2.867188 -17.394531 3.203125 -17.53125 C 3.722656 -17.695312 4.101562 -17.660156 4.34375 -17.421875 C 4.59375 -17.191406 4.707031 -16.894531 4.6875 -16.53125 C 4.675781 -16.175781 4.515625 -15.847656 4.203125 -15.546875 C 3.890625 -15.253906 3.425781 -15.128906 2.8125 -15.171875 Z M 2.8125 -15.171875 "/></g></g></g><g fill="#ffffff" fill-opacity="1"><g transform="translate(125.187996, 47.921375)"><g><path d="M 19.84375 -10.984375 C 20.070312 -10.847656 20.21875 -10.65625 20.28125 -10.40625 C 20.351562 -10.164062 20.320312 -9.929688 20.1875 -9.703125 C 18.644531 -6.972656 17.253906 -4.878906 16.015625 -3.421875 C 14.785156 -1.960938 13.535156 -1.316406 12.265625 -1.484375 C 10.617188 -1.671875 9.320312 -3.441406 8.375 -6.796875 C 8.039062 -7.878906 7.75 -8.65625 7.5 -9.125 C 7.257812 -9.601562 7.066406 -9.898438 6.921875 -10.015625 C 6.773438 -10.128906 6.664062 -10.1875 6.59375 -10.1875 C 6.5 -10.21875 6.300781 -10.117188 6 -9.890625 C 5.707031 -9.660156 5.28125 -9.148438 4.71875 -8.359375 C 4.164062 -7.578125 3.476562 -6.359375 2.65625 -4.703125 C 1.832031 -3.046875 0.832031 -0.773438 -0.34375 2.109375 C -0.507812 2.503906 -0.789062 2.703125 -1.1875 2.703125 C -1.28125 2.703125 -1.359375 2.6875 -1.421875 2.65625 C -1.984375 2.53125 -2.234375 2.1875 -2.171875 1.625 C -2.003906 0.28125 -1.707031 -1.273438 -1.28125 -3.046875 C -0.851562 -4.828125 -0.382812 -6.632812 0.125 -8.46875 C 0.632812 -10.300781 1.101562 -11.941406 1.53125 -13.390625 C 1.625 -13.722656 1.710938 -14.023438 1.796875 -14.296875 C 1.878906 -14.578125 1.953125 -14.847656 2.015625 -15.109375 C 2.117188 -15.378906 2.285156 -15.570312 2.515625 -15.6875 C 2.742188 -15.800781 2.972656 -15.820312 3.203125 -15.75 C 3.460938 -15.6875 3.65625 -15.539062 3.78125 -15.3125 C 3.914062 -15.082031 3.9375 -14.835938 3.84375 -14.578125 C 3.769531 -14.304688 3.691406 -14.03125 3.609375 -13.75 C 3.535156 -13.476562 3.445312 -13.175781 3.34375 -12.84375 C 3.113281 -11.988281 2.847656 -11.050781 2.546875 -10.03125 C 2.253906 -9.019531 1.960938 -7.988281 1.671875 -6.9375 C 2.785156 -9.039062 3.738281 -10.4375 4.53125 -11.125 C 5.320312 -11.8125 6.046875 -12.140625 6.703125 -12.109375 C 7.617188 -12.046875 8.335938 -11.535156 8.859375 -10.578125 C 9.390625 -9.628906 9.832031 -8.53125 10.1875 -7.28125 C 10.6875 -5.570312 11.144531 -4.488281 11.5625 -4.03125 C 11.988281 -3.570312 12.300781 -3.34375 12.5 -3.34375 C 12.925781 -3.28125 13.425781 -3.519531 14 -4.0625 C 14.582031 -4.601562 15.160156 -5.289062 15.734375 -6.125 C 16.304688 -6.96875 16.847656 -7.796875 17.359375 -8.609375 C 17.867188 -9.429688 18.253906 -10.109375 18.515625 -10.640625 C 18.640625 -10.867188 18.832031 -11.015625 19.09375 -11.078125 C 19.363281 -11.140625 19.613281 -11.109375 19.84375 -10.984375 Z M 19.84375 -10.984375 "/></g></g></g><g fill="#ffffff" fill-opacity="1"><g transform="translate(149.757229, 47.921375)"><g/></g></g><g clip-path="url(#05ef002b42)"><g fill="#ffffff" fill-opacity="1"><g transform="translate(171.86469, 47.921375)"><g><path d="M 41.546875 -29.046875 C 41.710938 -28.847656 41.78125 -28.617188 41.75 -28.359375 C 41.71875 -28.097656 41.585938 -27.882812 41.359375 -27.71875 C 40.960938 -27.457031 40.582031 -27.472656 40.21875 -27.765625 C 39.789062 -27.929688 38.8125 -28.046875 37.28125 -28.109375 C 35.757812 -28.179688 33.847656 -28.222656 31.546875 -28.234375 C 29.253906 -28.253906 26.726562 -28.242188 23.96875 -28.203125 C 21.21875 -28.171875 18.390625 -28.128906 15.484375 -28.078125 C 12.578125 -28.035156 9.765625 -27.984375 7.046875 -27.921875 C 6.023438 -23.648438 4.957031 -19.007812 3.84375 -14 C 2.726562 -9 1.628906 -3.921875 0.546875 1.234375 C -0.867188 7.992188 -1.960938 13.539062 -2.734375 17.875 C -3.503906 22.207031 -4.003906 25.34375 -4.234375 27.28125 C -4.171875 27.28125 -4.101562 27.296875 -4.03125 27.328125 C -3.769531 27.390625 -3.585938 27.539062 -3.484375 27.78125 C -3.390625 28.03125 -3.394531 28.269531 -3.5 28.5 C -3.695312 29.0625 -3.914062 29.578125 -4.15625 30.046875 C -4.40625 30.523438 -4.742188 30.765625 -5.171875 30.765625 C -5.265625 30.765625 -5.378906 30.75 -5.515625 30.71875 C -5.972656 30.550781 -6.222656 30.195312 -6.265625 29.65625 C -6.316406 29.113281 -6.28125 28.367188 -6.15625 27.421875 C -6.019531 26.046875 -5.722656 24.0625 -5.265625 21.46875 C -4.867188 19.039062 -4.359375 16.203125 -3.734375 12.953125 C -3.117188 9.703125 -2.398438 6.140625 -1.578125 2.265625 C -0.492188 -2.984375 0.617188 -8.203125 1.765625 -13.390625 C 2.921875 -18.578125 4.023438 -23.398438 5.078125 -27.859375 C 3.492188 -27.828125 1.992188 -27.796875 0.578125 -27.765625 C -0.828125 -27.734375 -2.101562 -27.703125 -3.25 -27.671875 C -5.445312 -27.609375 -7.363281 -27.554688 -9 -27.515625 C -10.644531 -27.484375 -11.8125 -27.46875 -12.5 -27.46875 C -12.769531 -27.46875 -12.992188 -27.554688 -13.171875 -27.734375 C -13.347656 -27.921875 -13.4375 -28.144531 -13.4375 -28.40625 C -13.4375 -28.664062 -13.347656 -28.882812 -13.171875 -29.0625 C -12.992188 -29.25 -12.769531 -29.34375 -12.5 -29.34375 C -11.8125 -29.34375 -10.65625 -29.363281 -9.03125 -29.40625 C -7.40625 -29.457031 -5.492188 -29.519531 -3.296875 -29.59375 C -1.722656 -29.625 -0.195312 -29.65625 1.28125 -29.6875 C 2.757812 -29.71875 4.1875 -29.75 5.5625 -29.78125 C 6.050781 -31.882812 6.535156 -33.863281 7.015625 -35.71875 C 7.492188 -37.570312 7.945312 -39.269531 8.375 -40.8125 C 8.4375 -41.070312 8.582031 -41.269531 8.8125 -41.40625 C 9.039062 -41.539062 9.269531 -41.570312 9.5 -41.5 C 9.757812 -41.4375 9.957031 -41.289062 10.09375 -41.0625 C 10.226562 -40.832031 10.257812 -40.585938 10.1875 -40.328125 C 9.40625 -37.398438 8.503906 -33.90625 7.484375 -29.84375 C 12.609375 -29.9375 16.988281 -30.003906 20.625 -30.046875 C 24.269531 -30.097656 27.320312 -30.125 29.78125 -30.125 C 32.25 -30.125 34.242188 -30.09375 35.765625 -30.03125 C 37.296875 -29.96875 38.453125 -29.894531 39.234375 -29.8125 C 40.023438 -29.726562 40.582031 -29.617188 40.90625 -29.484375 C 41.238281 -29.359375 41.453125 -29.210938 41.546875 -29.046875 Z M 41.546875 -29.046875 "/></g></g></g></g><g fill="#ffffff" fill-opacity="1"><g transform="translate(185.405193, 47.921375)"><g><path d="M 23.34375 -11.28125 C 23.53125 -11.144531 23.65625 -10.945312 23.71875 -10.6875 C 23.789062 -10.425781 23.757812 -10.179688 23.625 -9.953125 C 22.050781 -7.421875 20.65625 -5.363281 19.4375 -3.78125 C 18.226562 -2.207031 17.1875 -1.007812 16.3125 -0.1875 C 15.445312 0.625 14.71875 1.175781 14.125 1.46875 C 13.539062 1.769531 13.066406 1.921875 12.703125 1.921875 C 12.335938 1.921875 12.054688 1.90625 11.859375 1.875 C 11.109375 1.675781 10.550781 1.222656 10.1875 0.515625 C 9.832031 -0.191406 9.597656 -0.921875 9.484375 -1.671875 C 9.367188 -2.429688 9.289062 -3.003906 9.25 -3.390625 C 9.1875 -4.546875 9.054688 -5.316406 8.859375 -5.703125 C 8.660156 -6.097656 8.515625 -6.296875 8.421875 -6.296875 C 8.390625 -6.296875 8.375 -6.296875 8.375 -6.296875 C 7.945312 -6.296875 7.238281 -5.695312 6.25 -4.5 C 5.269531 -3.300781 4.113281 -1.425781 2.78125 1.125 C 1.445312 3.6875 0.0625 7.019531 -1.375 11.125 C -1.507812 11.550781 -1.804688 11.765625 -2.265625 11.765625 C -2.328125 11.765625 -2.394531 11.765625 -2.46875 11.765625 C -2.988281 11.628906 -3.234375 11.300781 -3.203125 10.78125 C -3.171875 10.226562 -3.019531 9.226562 -2.75 7.78125 C -2.488281 6.332031 -2.132812 4.597656 -1.6875 2.578125 C -1.25 0.566406 -0.757812 -1.617188 -0.21875 -3.984375 C 0.320312 -6.347656 0.878906 -8.742188 1.453125 -11.171875 C 2.023438 -13.597656 2.570312 -15.921875 3.09375 -18.140625 C 3.625 -20.359375 4.101562 -22.351562 4.53125 -24.125 C 4.957031 -25.894531 5.300781 -27.3125 5.5625 -28.375 C 5.820312 -29.445312 5.953125 -30 5.953125 -30.03125 C 6.710938 -33.050781 7.550781 -35.800781 8.46875 -38.28125 C 9.382812 -40.757812 10.296875 -42.753906 11.203125 -44.265625 C 12.109375 -45.773438 12.90625 -46.59375 13.59375 -46.71875 C 14.144531 -46.820312 14.570312 -46.660156 14.875 -46.234375 C 15.332031 -45.578125 15.289062 -44.207031 14.75 -42.125 C 14.207031 -40.039062 13.222656 -37.40625 11.796875 -34.21875 C 10.367188 -31.03125 8.550781 -27.46875 6.34375 -23.53125 C 5.757812 -21.070312 5.113281 -18.378906 4.40625 -15.453125 C 3.695312 -12.535156 3.003906 -9.597656 2.328125 -6.640625 C 1.660156 -3.691406 1.050781 -0.96875 0.5 1.53125 C 1.382812 -0.34375 2.289062 -2.035156 3.21875 -3.546875 C 4.15625 -5.054688 5.09375 -6.226562 6.03125 -7.0625 C 6.96875 -7.90625 7.847656 -8.273438 8.671875 -8.171875 C 9.390625 -8.078125 9.921875 -7.71875 10.265625 -7.09375 C 10.609375 -6.46875 10.835938 -5.800781 10.953125 -5.09375 C 11.066406 -4.382812 11.125 -3.867188 11.125 -3.546875 C 11.226562 -2.328125 11.394531 -1.4375 11.625 -0.875 C 11.851562 -0.320312 12.082031 -0.03125 12.3125 0 C 12.375 0.03125 12.59375 -0.0078125 12.96875 -0.125 C 13.351562 -0.238281 13.910156 -0.609375 14.640625 -1.234375 C 15.378906 -1.859375 16.351562 -2.929688 17.5625 -4.453125 C 18.78125 -5.984375 20.257812 -8.160156 22 -10.984375 C 22.132812 -11.179688 22.332031 -11.3125 22.59375 -11.375 C 22.863281 -11.4375 23.113281 -11.40625 23.34375 -11.28125 Z M 13.25 -43.96875 C 12.6875 -43.144531 11.9375 -41.691406 11 -39.609375 C 10.0625 -37.523438 9.117188 -34.691406 8.171875 -31.109375 C 9.847656 -34.429688 11.070312 -37.15625 11.84375 -39.28125 C 12.613281 -41.414062 13.082031 -42.976562 13.25 -43.96875 Z M 13.25 -43.96875 "/></g></g></g><g fill="#ffffff" fill-opacity="1"><g transform="translate(213.61784, 47.921375)"><g><path d="M 16.640625 -10.984375 C 16.867188 -10.847656 17 -10.648438 17.03125 -10.390625 C 17.0625 -10.128906 17.015625 -9.898438 16.890625 -9.703125 C 14.953125 -7.003906 13.175781 -4.773438 11.5625 -3.015625 C 9.957031 -1.265625 8.351562 0.179688 6.75 1.328125 C 5.53125 2.179688 4.332031 2.609375 3.15625 2.609375 C 2.226562 2.609375 1.421875 2.363281 0.734375 1.875 C 0.273438 1.539062 -0.171875 0.957031 -0.609375 0.125 C -1.054688 -0.707031 -1.296875 -1.921875 -1.328125 -3.515625 C -1.359375 -5.109375 -0.960938 -7.203125 -0.140625 -9.796875 C -0.140625 -9.796875 -0.140625 -9.8125 -0.140625 -9.84375 C 0.835938 -13 1.988281 -15.40625 3.3125 -17.0625 C 4.644531 -18.71875 5.789062 -19.5625 6.75 -19.59375 C 7.5 -19.625 7.988281 -19.296875 8.21875 -18.609375 C 8.582031 -17.660156 8.15625 -16.304688 6.9375 -14.546875 C 5.726562 -12.796875 3.941406 -10.929688 1.578125 -8.953125 C 0.859375 -6.660156 0.515625 -4.863281 0.546875 -3.5625 C 0.578125 -2.269531 0.753906 -1.335938 1.078125 -0.765625 C 1.410156 -0.191406 1.675781 0.175781 1.875 0.34375 C 2.851562 1.0625 4.113281 0.863281 5.65625 -0.25 C 7.164062 -1.300781 8.691406 -2.671875 10.234375 -4.359375 C 11.785156 -6.046875 13.476562 -8.1875 15.3125 -10.78125 C 15.476562 -10.976562 15.691406 -11.097656 15.953125 -11.140625 C 16.210938 -11.191406 16.441406 -11.140625 16.640625 -10.984375 Z M 6.40625 -17.53125 C 6.039062 -17.300781 5.546875 -16.816406 4.921875 -16.078125 C 4.296875 -15.335938 3.65625 -14.257812 3 -12.84375 C 4.1875 -14 5.023438 -14.976562 5.515625 -15.78125 C 6.003906 -16.582031 6.300781 -17.164062 6.40625 -17.53125 Z M 6.40625 -17.53125 "/></g></g></g><g fill="#ffffff" fill-opacity="1"><g transform="translate(234.937534, 47.921375)"><g/></g></g><g fill="#ffffff" fill-opacity="1"><g transform="translate(257.044995, 47.921375)"><g><path d="M 21.90625 -11.28125 C 22.101562 -11.113281 22.21875 -10.894531 22.25 -10.625 C 22.28125 -10.363281 22.195312 -10.140625 22 -9.953125 C 21.050781 -8.828125 20.003906 -7.59375 18.859375 -6.25 C 17.710938 -4.90625 16.585938 -3.59375 15.484375 -2.3125 C 14.378906 -1.03125 13.429688 0.0703125 12.640625 1 C 11.859375 1.9375 11.335938 2.570312 11.078125 2.90625 C 10.515625 3.625 9.972656 4.328125 9.453125 5.015625 C 9.878906 6.921875 9.921875 8.71875 9.578125 10.40625 C 9.234375 12.101562 8.65625 13.609375 7.84375 14.921875 C 7.039062 16.234375 6.195312 17.25 5.3125 17.96875 C 4.394531 18.757812 3.539062 19.15625 2.75 19.15625 C 2.257812 19.15625 1.851562 18.988281 1.53125 18.65625 C 0.96875 18.132812 0.773438 17.351562 0.953125 16.3125 C 1.140625 15.28125 1.5625 14.109375 2.21875 12.796875 C 2.875 11.484375 3.660156 10.117188 4.578125 8.703125 C 5.492188 7.296875 6.429688 5.9375 7.390625 4.625 C 7.222656 4.03125 6.988281 3.429688 6.6875 2.828125 C 6.394531 2.222656 6.050781 1.609375 5.65625 0.984375 C 4.3125 -1.046875 3.171875 -2.957031 2.234375 -4.75 C 1.304688 -6.539062 0.875 -8.175781 0.9375 -9.65625 C 1.101562 -12.375 2.316406 -14.40625 4.578125 -15.75 C 5.492188 -16.3125 6.460938 -16.640625 7.484375 -16.734375 C 8.503906 -16.835938 9.441406 -16.691406 10.296875 -16.296875 C 10.523438 -16.160156 10.675781 -15.96875 10.75 -15.71875 C 10.832031 -15.476562 10.828125 -15.242188 10.734375 -15.015625 C 10.597656 -14.785156 10.40625 -14.628906 10.15625 -14.546875 C 9.914062 -14.460938 9.679688 -14.472656 9.453125 -14.578125 C 8.273438 -15.128906 6.976562 -14.976562 5.5625 -14.125 C 3.851562 -13.113281 2.953125 -11.585938 2.859375 -9.546875 C 2.785156 -8.335938 3.191406 -6.910156 4.078125 -5.265625 C 4.972656 -3.628906 6.023438 -1.90625 7.234375 -0.09375 C 7.859375 0.851562 8.367188 1.820312 8.765625 2.8125 C 9.023438 2.476562 9.300781 2.113281 9.59375 1.71875 C 9.863281 1.394531 10.398438 0.757812 11.203125 -0.1875 C 12.003906 -1.144531 12.945312 -2.265625 14.03125 -3.546875 C 15.113281 -4.828125 16.238281 -6.140625 17.40625 -7.484375 C 18.570312 -8.828125 19.628906 -10.054688 20.578125 -11.171875 C 20.742188 -11.367188 20.957031 -11.484375 21.21875 -11.515625 C 21.476562 -11.546875 21.707031 -11.46875 21.90625 -11.28125 Z M 5.90625 14.46875 C 6.132812 14.113281 6.410156 13.597656 6.734375 12.921875 C 7.066406 12.253906 7.351562 11.4375 7.59375 10.46875 C 7.84375 9.5 7.921875 8.421875 7.828125 7.234375 C 6.316406 9.367188 5.191406 11.140625 4.453125 12.546875 C 3.710938 13.960938 3.234375 15.039062 3.015625 15.78125 C 2.804688 16.519531 2.738281 17.003906 2.8125 17.234375 C 3.039062 17.234375 3.445312 17.019531 4.03125 16.59375 C 4.625 16.164062 5.25 15.457031 5.90625 14.46875 Z M 5.90625 14.46875 "/></g></g></g><g fill="#ffffff" fill-opacity="1"><g transform="translate(283.879054, 47.921375)"><g><path d="M 16.296875 -11.171875 C 16.492188 -11.046875 16.625 -10.847656 16.6875 -10.578125 C 16.75 -10.316406 16.703125 -10.085938 16.546875 -9.890625 C 14.960938 -7.460938 13.398438 -5.210938 11.859375 -3.140625 C 10.316406 -1.078125 8.800781 0.59375 7.3125 1.875 C 5.820312 3.15625 4.367188 3.796875 2.953125 3.796875 C 2.660156 3.796875 2.363281 3.757812 2.0625 3.6875 C 0.882812 3.425781 -0.015625 2.738281 -0.640625 1.625 C -1.128906 0.738281 -1.414062 -0.285156 -1.5 -1.453125 C -1.582031 -2.617188 -1.523438 -3.804688 -1.328125 -5.015625 C -1.128906 -6.234375 -0.832031 -7.367188 -0.4375 -8.421875 C 0.21875 -10.222656 1.046875 -11.613281 2.046875 -12.59375 C 3.046875 -13.582031 3.988281 -13.929688 4.875 -13.640625 C 5.039062 -13.609375 5.28125 -13.457031 5.59375 -13.1875 C 5.90625 -12.925781 6.140625 -12.484375 6.296875 -11.859375 C 6.460938 -11.242188 6.382812 -10.34375 6.0625 -9.15625 C 5.988281 -8.894531 5.84375 -8.695312 5.625 -8.5625 C 5.414062 -8.4375 5.179688 -8.40625 4.921875 -8.46875 C 4.660156 -8.53125 4.460938 -8.675781 4.328125 -8.90625 C 4.203125 -9.132812 4.171875 -9.363281 4.234375 -9.59375 C 4.429688 -10.382812 4.503906 -10.953125 4.453125 -11.296875 C 4.398438 -11.640625 4.34375 -11.828125 4.28125 -11.859375 C 4.15625 -11.859375 3.78125 -11.585938 3.15625 -11.046875 C 2.53125 -10.503906 1.921875 -9.398438 1.328125 -7.734375 C 0.734375 -6.191406 0.410156 -4.625 0.359375 -3.03125 C 0.316406 -1.4375 0.539062 -0.195312 1.03125 0.6875 C 1.363281 1.3125 1.84375 1.691406 2.46875 1.828125 C 3.351562 2.015625 4.351562 1.707031 5.46875 0.90625 C 6.582031 0.101562 7.703125 -0.972656 8.828125 -2.328125 C 9.960938 -3.691406 11.0625 -5.144531 12.125 -6.6875 C 13.195312 -8.238281 14.144531 -9.65625 14.96875 -10.9375 C 15.101562 -11.125 15.300781 -11.25 15.5625 -11.3125 C 15.820312 -11.382812 16.066406 -11.335938 16.296875 -11.171875 Z M 16.296875 -11.171875 "/></g></g></g><g fill="#ffffff" fill-opacity="1"><g transform="translate(305.44493, 47.921375)"><g><path d="M 21.609375 -11.171875 C 21.835938 -11.046875 22 -10.859375 22.09375 -10.609375 C 22.195312 -10.359375 22.1875 -10.117188 22.0625 -9.890625 C 21.4375 -8.546875 20.671875 -7.035156 19.765625 -5.359375 C 18.859375 -3.691406 17.894531 -2.007812 16.875 -0.3125 C 15.863281 1.375 14.832031 2.914062 13.78125 4.3125 C 12.726562 5.707031 11.707031 6.835938 10.71875 7.703125 C 9.738281 8.578125 8.859375 9.015625 8.078125 9.015625 C 7.847656 9.015625 7.632812 8.960938 7.4375 8.859375 C 6.75 8.597656 6.296875 7.972656 6.078125 6.984375 C 5.867188 6.003906 5.894531 4.59375 6.15625 2.75 C 6.613281 -0.5625 7.828125 -5.253906 9.796875 -11.328125 C 9.765625 -11.328125 9.738281 -11.316406 9.71875 -11.296875 C 9.707031 -11.285156 9.6875 -11.28125 9.65625 -11.28125 C 9 -10.8125 8.207031 -10.332031 7.28125 -9.84375 C 6.363281 -9.351562 5.410156 -9.023438 4.421875 -8.859375 C 3.441406 -8.691406 2.507812 -8.90625 1.625 -9.5 C 0.375 -10.382812 -0.265625 -11.613281 -0.296875 -13.1875 C -0.328125 -14.769531 0.265625 -16.492188 1.484375 -18.359375 C 1.867188 -18.953125 2.378906 -19.609375 3.015625 -20.328125 C 3.660156 -21.054688 4.335938 -21.613281 5.046875 -22 C 5.753906 -22.394531 6.382812 -22.414062 6.9375 -22.0625 C 7.238281 -21.894531 7.460938 -21.613281 7.609375 -21.21875 C 7.753906 -20.820312 7.742188 -20.210938 7.578125 -19.390625 C 7.410156 -18.578125 7.015625 -17.476562 6.390625 -16.09375 C 5.773438 -14.71875 4.84375 -12.929688 3.59375 -10.734375 C 4.34375 -10.628906 5.1875 -10.835938 6.125 -11.359375 C 7.0625 -11.890625 7.890625 -12.382812 8.609375 -12.84375 C 9.304688 -13.3125 9.882812 -13.648438 10.34375 -13.859375 C 10.800781 -14.066406 11.226562 -14.023438 11.625 -13.734375 C 11.976562 -13.441406 12.125 -13.082031 12.0625 -12.65625 C 12 -12.226562 11.929688 -11.898438 11.859375 -11.671875 C 10.773438 -8.253906 9.9375 -5.410156 9.34375 -3.140625 C 8.757812 -0.878906 8.359375 0.9375 8.140625 2.3125 C 7.929688 3.6875 7.828125 4.71875 7.828125 5.40625 C 7.828125 6.101562 7.875 6.554688 7.96875 6.765625 C 8.070312 6.984375 8.125 7.109375 8.125 7.140625 C 8.519531 7.203125 9.332031 6.566406 10.5625 5.234375 C 11.789062 3.910156 13.257812 1.910156 14.96875 -0.765625 C 16.675781 -3.441406 18.460938 -6.75 20.328125 -10.6875 C 20.460938 -10.945312 20.648438 -11.117188 20.890625 -11.203125 C 21.140625 -11.285156 21.378906 -11.273438 21.609375 -11.171875 Z M 1.765625 -14.53125 C 1.578125 -13.832031 1.519531 -13.257812 1.59375 -12.8125 C 1.675781 -12.375 1.800781 -12.023438 1.96875 -11.765625 C 3.019531 -13.609375 3.816406 -15.101562 4.359375 -16.25 C 4.898438 -17.394531 5.269531 -18.28125 5.46875 -18.90625 C 5.664062 -19.53125 5.78125 -19.972656 5.8125 -20.234375 C 5.445312 -20.035156 4.992188 -19.65625 4.453125 -19.09375 C 3.910156 -18.539062 3.382812 -17.867188 2.875 -17.078125 C 2.363281 -16.296875 1.992188 -15.445312 1.765625 -14.53125 Z M 1.765625 -14.53125 "/></g></g></g><g fill="#ffffff" fill-opacity="1"><g transform="translate(332.082044, 47.921375)"><g><path d="M 17.828125 -10.734375 C 18.054688 -10.566406 18.1875 -10.351562 18.21875 -10.09375 C 18.25 -9.832031 18.179688 -9.601562 18.015625 -9.40625 C 17.160156 -8.320312 16.164062 -7.351562 15.03125 -6.5 C 13.90625 -5.644531 12.726562 -5.007812 11.5 -4.59375 C 10.269531 -4.1875 9.078125 -4.113281 7.921875 -4.375 C 7.460938 -3.226562 6.8125 -2.34375 5.96875 -1.71875 C 5.132812 -1.09375 4.296875 -0.78125 3.453125 -0.78125 C 3.453125 -0.78125 3.441406 -0.78125 3.421875 -0.78125 C 3.398438 -0.78125 3.390625 -0.78125 3.390625 -0.78125 C 2.503906 -0.820312 1.722656 -1.128906 1.046875 -1.703125 C 0.378906 -2.273438 -0.0820312 -3.070312 -0.34375 -4.09375 C -0.632812 -5.238281 -0.679688 -6.328125 -0.484375 -7.359375 C -0.296875 -8.390625 0.0546875 -9.300781 0.578125 -10.09375 C 1.109375 -10.882812 1.703125 -11.492188 2.359375 -11.921875 C 2.585938 -12.078125 2.851562 -12.109375 3.15625 -12.015625 C 3.445312 -12.734375 3.863281 -13.289062 4.40625 -13.6875 C 4.945312 -14.082031 5.515625 -14.226562 6.109375 -14.125 C 6.460938 -14.0625 6.851562 -13.84375 7.28125 -13.46875 C 7.707031 -13.09375 8.050781 -12.421875 8.3125 -11.453125 C 8.582031 -10.484375 8.664062 -9.0625 8.5625 -7.1875 C 8.53125 -6.863281 8.484375 -6.535156 8.421875 -6.203125 C 9.304688 -6.035156 10.238281 -6.132812 11.21875 -6.5 C 12.207031 -6.863281 13.160156 -7.410156 14.078125 -8.140625 C 14.992188 -8.878906 15.800781 -9.691406 16.5 -10.578125 C 16.65625 -10.773438 16.863281 -10.890625 17.125 -10.921875 C 17.394531 -10.960938 17.628906 -10.898438 17.828125 -10.734375 Z M 3.453125 -2.703125 C 3.878906 -2.703125 4.351562 -2.898438 4.875 -3.296875 C 5.394531 -3.691406 5.820312 -4.285156 6.15625 -5.078125 C 4.96875 -5.734375 4.117188 -6.484375 3.609375 -7.328125 C 3.109375 -8.179688 2.84375 -9.035156 2.8125 -9.890625 C 2.113281 -9.234375 1.65625 -8.394531 1.4375 -7.375 C 1.226562 -6.363281 1.242188 -5.445312 1.484375 -4.625 C 1.578125 -4.269531 1.769531 -3.859375 2.0625 -3.390625 C 2.363281 -2.929688 2.828125 -2.703125 3.453125 -2.703125 Z M 6.640625 -7.28125 C 6.710938 -8.59375 6.691406 -9.609375 6.578125 -10.328125 C 6.460938 -11.054688 6.320312 -11.550781 6.15625 -11.8125 C 5.988281 -12.070312 5.875 -12.222656 5.8125 -12.265625 C 5.78125 -12.265625 5.765625 -12.265625 5.765625 -12.265625 C 5.660156 -12.265625 5.507812 -12.164062 5.3125 -11.96875 C 5.113281 -11.769531 4.953125 -11.472656 4.828125 -11.078125 C 4.628906 -10.453125 4.644531 -9.769531 4.875 -9.03125 C 5.101562 -8.289062 5.691406 -7.609375 6.640625 -6.984375 C 6.640625 -7.085938 6.640625 -7.1875 6.640625 -7.28125 Z M 6.640625 -7.28125 "/></g></g></g><g fill="#ffffff" fill-opacity="1"><g transform="translate(354.829563, 47.921375)"><g><path d="M 14.46875 -46.125 C 14.894531 -45.507812 14.90625 -44.25 14.5 -42.34375 C 14.09375 -40.4375 13.25 -38.078125 11.96875 -35.265625 C 10.6875 -32.460938 8.976562 -29.359375 6.84375 -25.953125 C 6.8125 -25.910156 6.78125 -25.875 6.75 -25.84375 C 5.894531 -22.363281 5.046875 -18.816406 4.203125 -15.203125 C 3.367188 -11.597656 2.570312 -8.054688 1.8125 -4.578125 C 1.0625 -1.097656 0.375 2.171875 -0.25 5.234375 C -0.875 8.304688 -1.40625 11.039062 -1.84375 13.4375 C -2.289062 15.832031 -2.613281 17.753906 -2.8125 19.203125 C -2.769531 19.203125 -2.734375 19.203125 -2.703125 19.203125 C -2.441406 19.296875 -2.253906 19.457031 -2.140625 19.6875 C -2.023438 19.914062 -2.015625 20.164062 -2.109375 20.4375 C -2.347656 21.0625 -2.585938 21.625 -2.828125 22.125 C -3.078125 22.632812 -3.414062 22.890625 -3.84375 22.890625 C -3.9375 22.890625 -4.050781 22.875 -4.1875 22.84375 C -4.476562 22.75 -4.6875 22.546875 -4.8125 22.234375 C -4.945312 21.921875 -4.960938 21.296875 -4.859375 20.359375 C -4.765625 19.421875 -4.554688 17.984375 -4.234375 16.046875 C -3.640625 12.503906 -2.753906 7.878906 -1.578125 2.171875 C -0.722656 -1.835938 0.171875 -5.914062 1.109375 -10.0625 C 2.046875 -14.21875 2.972656 -18.222656 3.890625 -22.078125 C 4.804688 -25.929688 5.691406 -29.4375 6.546875 -32.59375 C 6.710938 -33.21875 6.957031 -34.085938 7.28125 -35.203125 C 7.613281 -36.316406 7.992188 -37.515625 8.421875 -38.796875 C 8.847656 -40.078125 9.320312 -41.304688 9.84375 -42.484375 C 10.375 -43.671875 10.914062 -44.648438 11.46875 -45.421875 C 12.03125 -46.191406 12.585938 -46.625 13.140625 -46.71875 C 13.703125 -46.820312 14.144531 -46.625 14.46875 -46.125 Z M 8.46875 -32.453125 C 10.039062 -35.398438 11.144531 -37.859375 11.78125 -39.828125 C 12.425781 -41.796875 12.800781 -43.222656 12.90625 -44.109375 C 12.4375 -43.453125 11.804688 -42.210938 11.015625 -40.390625 C 10.234375 -38.578125 9.382812 -35.929688 8.46875 -32.453125 Z M 8.46875 -32.453125 "/></g></g></g><g fill="#ffffff" fill-opacity="1"><g transform="translate(369.305527, 47.921375)"><g><path d="M 14.46875 -46.125 C 14.894531 -45.507812 14.90625 -44.25 14.5 -42.34375 C 14.09375 -40.4375 13.25 -38.078125 11.96875 -35.265625 C 10.6875 -32.460938 8.976562 -29.359375 6.84375 -25.953125 C 6.8125 -25.910156 6.78125 -25.875 6.75 -25.84375 C 5.894531 -22.363281 5.046875 -18.816406 4.203125 -15.203125 C 3.367188 -11.597656 2.570312 -8.054688 1.8125 -4.578125 C 1.0625 -1.097656 0.375 2.171875 -0.25 5.234375 C -0.875 8.304688 -1.40625 11.039062 -1.84375 13.4375 C -2.289062 15.832031 -2.613281 17.753906 -2.8125 19.203125 C -2.769531 19.203125 -2.734375 19.203125 -2.703125 19.203125 C -2.441406 19.296875 -2.253906 19.457031 -2.140625 19.6875 C -2.023438 19.914062 -2.015625 20.164062 -2.109375 20.4375 C -2.347656 21.0625 -2.585938 21.625 -2.828125 22.125 C -3.078125 22.632812 -3.414062 22.890625 -3.84375 22.890625 C -3.9375 22.890625 -4.050781 22.875 -4.1875 22.84375 C -4.476562 22.75 -4.6875 22.546875 -4.8125 22.234375 C -4.945312 21.921875 -4.960938 21.296875 -4.859375 20.359375 C -4.765625 19.421875 -4.554688 17.984375 -4.234375 16.046875 C -3.640625 12.503906 -2.753906 7.878906 -1.578125 2.171875 C -0.722656 -1.835938 0.171875 -5.914062 1.109375 -10.0625 C 2.046875 -14.21875 2.972656 -18.222656 3.890625 -22.078125 C 4.804688 -25.929688 5.691406 -29.4375 6.546875 -32.59375 C 6.710938 -33.21875 6.957031 -34.085938 7.28125 -35.203125 C 7.613281 -36.316406 7.992188 -37.515625 8.421875 -38.796875 C 8.847656 -40.078125 9.320312 -41.304688 9.84375 -42.484375 C 10.375 -43.671875 10.914062 -44.648438 11.46875 -45.421875 C 12.03125 -46.191406 12.585938 -46.625 13.140625 -46.71875 C 13.703125 -46.820312 14.144531 -46.625 14.46875 -46.125 Z M 8.46875 -32.453125 C 10.039062 -35.398438 11.144531 -37.859375 11.78125 -39.828125 C 12.425781 -41.796875 12.800781 -43.222656 12.90625 -44.109375 C 12.4375 -43.453125 11.804688 -42.210938 11.015625 -40.390625 C 10.234375 -38.578125 9.382812 -35.929688 8.46875 -32.453125 Z M 8.46875 -32.453125 "/></g></g></g><g fill="#ffffff" fill-opacity="1"><g transform="translate(383.781519, 47.921375)"><g><path d="M 2.859375 -2.21875 C 3.347656 -2.34375 3.691406 -2.304688 3.890625 -2.109375 C 4.085938 -1.921875 4.148438 -1.671875 4.078125 -1.359375 C 4.015625 -1.046875 3.816406 -0.753906 3.484375 -0.484375 C 3.160156 -0.222656 2.722656 -0.109375 2.171875 -0.140625 C 1.710938 -0.179688 1.488281 -0.347656 1.5 -0.640625 C 1.519531 -0.929688 1.664062 -1.234375 1.9375 -1.546875 C 2.21875 -1.859375 2.523438 -2.082031 2.859375 -2.21875 Z M 2.859375 -2.21875 "/></g></g></g></g></g></g></g></g></svg>